<?xml version="1.0" encoding="UTF-8"?>
<!-- Generator: Adobe Illustrator 21.1.0, SVG Export Plug-In . SVG Version: 6.00 Build 0)  -->
<svg version="1.1" id="Layer_1" xmlns="http://www.w3.org/2000/svg" xmlns:xlink="http://www.w3.org/1999/xlink" x="0px" y="0px" viewBox="0 0 63.5 63.5" style="enable-background:new 0 0 256 63.4;" xml:space="preserve">
<style type="text/css">
	.st0{fill:#0065A4;}
	.st1{fill:#FFFFFF;}
	.st2{fill:#231F20;}
</style>
<g>
	<path class="st0" d="M0,31.7C0,14.2,14.2,0,31.7,0c17.5,0,31.7,14.2,31.7,31.7c0,17.5-14.2,31.7-31.7,31.7C14.2,63.4,0,49.2,0,31.7   z"/>
	<path class="st1" d="M37,8.7c0,0.9,0,11.5,0,14.7c0,3.2,0.4,5.7,0.5,6c0,0-0.1,0-0.1,0c-1-2.1-2.6-3.6-4.2-4.3   C33.7,24,34,22.5,34,21s0-11,0-12.7c0-2.1-0.8-2.9-0.8-2.9c1.5,0.1,3.3,0.3,4.4,0.6C37.3,6.4,37,7.1,37,8.7z M47.9,23.2   c-0.1,0.3-0.1,0.5-0.1,0.5h-0.1c0,0,0-0.2-0.1-0.5C47.5,22.9,44,8.5,44,8.5c-1.5-0.7-3.2-1.5-4.9-2c0,0,0.4,0.5,0.4,2   c0,1.5,0,36.8,0,41.2c0,4.5-1.5,7.6-1.5,7.6c2.1-0.6,4.1-1.3,6.1-2.2c0,0-1.5-2.7-1.5-7.6c0-5,0-31.3,0-31.5c0-0.2-0.1-0.6-0.1-0.6   l0.1,0l5.3,20.7c0,0,3.4-15.3,3.6-16.4c1.4,1.8,3.1,6,3.1,12.7c0,5.6-1.9,10.1-3.6,11.7c-0.5,0.4-1.3,0.7-1.5,0.3   c0,1.4,0,6.9,0,6.9c5.2-4.8,8.4-11.9,8.4-19.5c0-7.5-3-14.2-8.1-19C49.9,12.7,47.9,22.9,47.9,23.2z M19.6,48.6c0-1,0-36,0-37.4   c0-1.7,0.5-3.1,0.5-3.1C11.4,12.5,5.4,21.3,5.4,31.7c0,6.9,2.8,13.8,7.5,18.5c0,0,0-5.7,0-6.5c-0.3,0.1-0.6,0-0.9-0.2   c-1.9-1.1-3.8-8-3.5-12.3c5.1,0.8,8.2,6.5,8.2,13.6c0,3.4-0.3,5.5-1.5,7.3c1.4,1.2,3.2,2.4,5.1,3.3C20.2,55.4,19.6,52.5,19.6,48.6z    M16.6,13.8c0,0,0,20.2,0,20.4c0,0.2,0.1,0.5,0.1,0.5l-0.1,0c0,0-0.1-0.3-0.1-0.5c-0.9-3.2-3.7-5.6-7.8-5.8   C9.6,22.3,12,17.8,16.6,13.8z M37.5,29.6 M37.4,29.6 M21.5,56c2.2,0.9,4.5,1.8,7,1.8c4.6,0,9.1-4.3,9.1-14.3   c0-10.9-5.1-17-9.1-19.9c1.5-1.9,3.9-5.8,3.9-10.5c0-5.7-2.7-7.5-5.4-7.4c-1.9,0.1-3.7,0.9-5.4,1.6c0,0,0.5,0.4,0.5,2.2   c0,1.8,0,41.2,0,43C22.2,54.4,21.5,56,21.5,56z M34.2,43.4c0,7.9-2.7,11.5-5.5,11.5c-1.2,0-2.3-0.2-3.4-0.7c0-0.8,0-26.6,0-27.4   c0.4-0.3,0.7-0.5,1-0.8C31.7,29.6,34.2,36.2,34.2,43.4z M29.4,12.8c0,3.6-1.3,7.2-4.1,10.4c0-1.2,0-13.6,0-14.1   c0.1,0,1-0.4,1.5-0.4C27.8,8.7,29.4,9.1,29.4,12.8z"/>
	<g>
		<path class="st2" d="M73.9,33c-0.3,0.9-1,2.6-1,3.5c0,1,1.1,0.9,1.7,1V38c-0.8,0-1.5-0.1-2.3-0.1c-0.7,0-1.4,0.1-2.1,0.1v-0.5    c1.1-0.1,1.6-0.5,2-1.6c0.6-1.5,1.1-2.9,1.7-4.4l3.2-9h0.7l4.2,11.7c0.2,0.6,0.7,2,1.1,2.5c0.5,0.7,1.1,0.8,1.8,0.8V38    c-1,0-2-0.1-2.9-0.1c-1,0-2,0.1-3,0.1v-0.5c0.6,0,1.6,0,1.6-0.9c0-0.6-0.2-1.3-0.4-1.8l-0.8-2.4h-5.1L73.9,33z M78.9,31.7    l-2.3-6.5l-2.3,6.5H78.9z"/>
		<path class="st2" d="M88.1,35.2c0,1.5-0.2,2.2,1.4,2.3V38c-0.7,0-1.5-0.1-2.2-0.1c-0.8,0-1.6,0.1-2.4,0.1v-0.5    c1.5-0.1,1.4-0.7,1.4-2.2v-2.8c0-0.6,0-2.2-0.1-2.8c-0.2-0.8-0.7-0.7-1.4-0.7v-0.5c1.1-0.1,1.8-0.5,2.8-0.7l0.2,1.9    c0.8-1.2,1.8-1.9,3.1-1.9c1.2,0,2.4,0.5,2.8,1.9c0.7-1.2,1.8-1.9,3.1-1.9c0.9,0,1.8,0.3,2.4,1.1c0.6,0.8,0.6,2.1,0.6,3v3.2    c0,1.5-0.2,2.2,1.4,2.3V38c-0.8,0-1.5-0.1-2.3-0.1c-0.8,0-1.5,0.1-2.3,0.1v-0.5c1.5-0.1,1.4-0.7,1.4-2.2v-2.9    c0-1.6,0.2-3.9-1.9-3.9c-0.8,0-1.7,0.7-2,1.5C94,30.7,94,31.6,94,32.4v2.8c0,1.5-0.2,2.2,1.4,2.3V38c-0.7,0-1.5-0.1-2.3-0.1    c-0.8,0-1.5,0.1-2.3,0.1v-0.5c1.5-0.1,1.4-0.7,1.4-2.2v-2.9c0-1.6,0.2-3.9-1.9-3.9c-0.8,0-1.7,0.7-2,1.5c-0.3,0.7-0.3,1.5-0.3,2.4    V35.2z"/>
		<path class="st2" d="M111.2,36.3c-1,1.3-2.1,1.9-3.7,1.9c-2.6,0-4.7-2-4.7-4.9c0-2.9,2-5.5,4.6-5.5c2,0,3.9,1.3,3.9,3.7    c0,0.3-0.3,0.2-0.5,0.2H105l-0.1,1.1c0,2.2,1,4.6,3.2,4.6c1.1,0,2-0.8,2.6-1.7L111.2,36.3z M108.5,31.2c0.3,0,1,0.1,1-0.5    c0-1.4-0.7-2.3-2-2.3c-1.5,0-2.2,1.3-2.4,2.8H108.5z"/>
		<path class="st2" d="M114.5,32.5c0-0.6,0-2.2-0.1-2.8c-0.2-0.8-0.7-0.7-1.4-0.7v-0.5c1-0.1,1.9-0.5,2.8-0.7    c0.2,0.7,0.3,1.5,0.2,2.3h0c0.5-1.4,1.6-2.3,3-2.3c0.6,0,1.5,0.3,1.5,1.2c0,0.4-0.3,0.8-0.7,0.8c-0.9,0-0.7-1.2-1.5-1.2    c-0.6,0-1.3,0.6-1.6,1.1c-0.5,0.9-0.5,2.1-0.5,3.1v2.3c0,1.7-0.2,2.2,1.6,2.3V38c-0.8,0-1.6-0.1-2.4-0.1c-0.8,0-1.6,0.1-2.4,0.1    v-0.5c1.5-0.1,1.4-0.7,1.4-2.2V32.5z"/>
		<path class="st2" d="M124.4,27.8v7.4c0,1.5-0.2,2.2,1.4,2.3V38c-0.7,0-1.5-0.1-2.2-0.1c-0.8,0-1.6,0.1-2.4,0.1v-0.5    c1.5-0.1,1.4-0.7,1.4-2.2v-3.3c0-0.4,0-2.2-0.1-2.5c-0.1-0.6-1-0.5-1.4-0.5v-0.5L124.4,27.8z M122.1,23.7c0-0.7,0.5-1.2,1.1-1.2    c0.6,0,1.1,0.6,1.1,1.2c0,0.7-0.5,1.2-1.1,1.2C122.7,25,122.1,24.5,122.1,23.7z"/>
		<path class="st2" d="M135.3,36.5c-0.9,1.2-2.3,1.8-3.6,1.8c-2.6,0-4.4-2-4.4-4.9c0-3.2,2.2-5.5,5.1-5.5c0.8,0,2.7,0.3,2.7,1.5    c0,0.4-0.3,0.8-0.7,0.8c-0.5,0-0.8-0.5-0.9-0.9c-0.2-0.7-0.4-0.9-1.2-0.9c-2.2,0-2.9,2.5-2.9,4.5c0,2.2,0.6,4.5,3,4.5    c1,0,1.9-0.6,2.6-1.4L135.3,36.5z"/>
		<path class="st2" d="M141.9,31.7c0.2-0.1,0.2-0.4,0.2-0.7c0-1.6-0.1-2.7-1.8-2.7c-1,0-1.9,0.1-1.9,1.3c0,0.5-0.3,1-0.8,1    c-0.5,0-0.8-0.3-0.8-0.8c0-1.7,2.7-2,3.8-2c2.3,0,3.3,0.7,3.3,3.3v3.8c0,0.6-0.1,2.3,0.7,2.3c0.4,0,0.6-0.4,0.8-0.7l0.4,0.2    c-0.3,0.8-1.1,1.5-1.9,1.5c-0.8,0-1.6-0.7-1.8-1.6c-1,0.9-2.2,1.6-3.4,1.6c-1.1,0-2.1-0.7-2.1-2c0-1.9,2-2.8,3.3-3.4L141.9,31.7z     M142.1,32.3c-1.2,0.7-3.6,1.6-3.6,3.4c0,0.8,0.5,1.7,1.3,1.7c0.8,0,1.7-0.7,2.3-1.3V32.3z"/>
		<path class="st2" d="M156,35.2c0,1.5-0.2,2.2,1.4,2.3V38c-0.7,0-1.5-0.1-2.3-0.1c-0.8,0-1.6,0.1-2.4,0.1v-0.5    c1.5-0.1,1.4-0.7,1.4-2.2v-2.9c0-1.6,0.1-3.8-1.9-3.8c-1.6,0-2.6,1.4-2.6,3.1v3.6c0,1.5-0.2,2.2,1.4,2.3V38    c-0.7,0-1.5-0.1-2.2-0.1c-0.8,0-1.6,0.1-2.4,0.1v-0.5c1.5-0.1,1.4-0.7,1.4-2.2v-2.8c0-0.6,0-2.2-0.1-2.8c-0.2-0.8-0.7-0.7-1.4-0.7    v-0.5c1.1-0.1,1.8-0.5,2.8-0.7l0.3,2.1h0c0.7-1.4,1.8-2.1,3.3-2.1c2,0,3.1,1,3.1,3.2V35.2z"/>
		<path class="st2" d="M166,27.1c0-0.7,0-2.4-0.2-3.1c-0.2-0.8-1.1-0.8-1.8-0.8v-0.5c1,0,2,0.1,3,0.1c0.8,0,1.6-0.1,2.5-0.1    c2.2-0.1,5.1,0.6,5.1,3.6c0,2.1-1.5,3-3.1,3.5v0c1.2,0.1,2.2,0.3,3,0.9c1,0.7,1.6,1.8,1.6,3.2c0,1.5-0.8,2.6-2,3.3    c-1.1,0.6-2.6,0.6-3.8,0.6c-0.9,0-1.8-0.1-2.7-0.1c-1.2,0-2.3,0.1-3.5,0.1v-0.5c0.7,0,1.5,0,1.8-0.8c0.2-0.6,0.2-2.3,0.2-3.1V27.1    z M168.2,29.7h0.7c0.9,0,1.7,0,2.5-0.5c0.9-0.6,1.1-1.6,1.1-2.7c0-2-1-3.1-2.8-3.1c-0.3,0-1.1,0-1.2,0.1c-0.1,0.1-0.1,0.8-0.1,1    V29.7z M168.2,33.5c0,0.8,0,2.2,0.2,2.9c0.4,1,1.4,1,2.2,1c2,0,2.9-1.3,2.9-3.5c0-1.3-0.4-2.4-1.5-3.1c-1-0.6-2.2-0.5-3.2-0.5    h-0.6V33.5z"/>
		<path class="st2" d="M187.5,33c0,3.1-2.3,5.2-5,5.2c-2.7,0-5-2.3-5-5.3c0-2.9,2.4-5.1,5-5.1C185.1,27.8,187.5,30,187.5,33z     M179.6,33c0,2.2,0.6,4.7,3,4.7c2.2,0,2.8-2.5,2.8-4.6c0-2.2-0.6-4.8-3-4.8C180.2,28.4,179.6,31,179.6,33z"/>
		<path class="st2" d="M194.3,31.7c0.2-0.1,0.2-0.4,0.2-0.7c0-1.6-0.1-2.7-1.8-2.7c-1,0-1.9,0.1-1.9,1.3c0,0.5-0.3,1-0.8,1    c-0.5,0-0.8-0.3-0.8-0.8c0-1.7,2.7-2,3.8-2c2.3,0,3.3,0.7,3.3,3.3v3.8c0,0.6-0.1,2.3,0.7,2.3c0.4,0,0.6-0.4,0.8-0.7l0.4,0.2    c-0.3,0.8-1.1,1.5-1.9,1.5c-0.8,0-1.6-0.7-1.8-1.6c-1,0.9-2.2,1.6-3.4,1.6c-1.1,0-2.1-0.7-2.1-2c0-1.9,2-2.8,3.3-3.4L194.3,31.7z     M194.5,32.3c-1.2,0.7-3.6,1.6-3.6,3.4c0,0.8,0.5,1.7,1.3,1.7c0.8,0,1.7-0.7,2.3-1.3V32.3z"/>
		<path class="st2" d="M200.4,32.5c0-0.6,0-2.2-0.1-2.8c-0.2-0.8-0.7-0.7-1.4-0.7v-0.5c1-0.1,1.9-0.5,2.8-0.7    c0.2,0.7,0.3,1.5,0.2,2.3h0c0.5-1.4,1.6-2.3,3-2.3c0.6,0,1.5,0.3,1.5,1.2c0,0.4-0.3,0.8-0.7,0.8c-0.9,0-0.7-1.2-1.5-1.2    c-0.6,0-1.3,0.6-1.6,1.1c-0.5,0.9-0.5,2.1-0.5,3.1v2.3c0,1.7-0.2,2.2,1.6,2.3V38c-0.8,0-1.6-0.1-2.4-0.1c-0.8,0-1.6,0.1-2.4,0.1    v-0.5c1.5-0.1,1.4-0.7,1.4-2.2V32.5z"/>
		<path class="st2" d="M215.3,38.2c-0.2-0.5-0.4-1.1-0.4-1.7c-0.9,1.2-1.8,1.7-3.2,1.7c-2.6,0-4.4-2.2-4.4-5.1    c0-2.8,1.8-5.3,4.4-5.3c1.1,0,2.2,0.5,3,1.4v-3.6c0-1.4-0.1-2.1-1.5-2.2V23l3.3-0.7v11.6c0,0.6,0,1.8,0.2,2.4    c0.3,0.8,0.8,0.8,1.5,0.8v0.5L215.3,38.2z M214.6,30.9c0-1.4-1.3-2.3-2.5-2.3c-2.2,0-2.8,2.6-2.8,4.6c0,2.1,0.6,4.4,2.8,4.4    c1.9,0,2.5-1.6,2.5-3.4V30.9z"/>
		<path class="st2" d="M74.4,54c0,3.1-2.3,5.2-5,5.2c-2.7,0-5-2.3-5-5.3c0-2.9,2.4-5.1,5-5.1C72,48.9,74.4,51.1,74.4,54z M66.5,54    c0,2.2,0.6,4.7,3,4.7c2.3,0,2.8-2.5,2.8-4.6c0-2.2-0.6-4.8-3-4.8C67.1,49.4,66.5,52,66.5,54z"/>
		<path class="st2" d="M75.5,50.2v-0.6h1.7v-1.2c0-3,1-4.8,3.8-4.8c0.8,0,2.5,0.3,2.5,1.4c0,0.4-0.4,0.7-0.7,0.7    c-0.4,0-0.6-0.3-0.7-0.6c-0.2-0.7-0.5-1-1.2-1c-0.8,0-1.3,0.3-1.7,1.1c-0.3,0.8-0.3,1.9-0.3,2.8v1.6h2.5v0.6h-2.5v6.1    c0,0.6,0.1,1.1,0.2,1.4c0.3,0.9,1.3,0.8,2.1,0.8V59c-1,0-2-0.1-3-0.1c-0.9,0-1.9,0.1-2.8,0.1v-0.5c1.8-0.1,1.8-0.7,1.8-2.5v-5.8    H75.5z"/>
		<path class="st2" d="M89.8,48.2c0-0.7,0-2.4-0.2-3.1c-0.3-0.8-1.1-0.8-1.8-0.8v-0.5c1,0,2,0.1,3,0.1c1.1,0,2.1-0.1,3.1-0.1v0.5    c-0.7,0-1.5,0-1.8,0.8c-0.2,0.6-0.2,2.3-0.2,3.1v6.5c0,0.7,0,2.4,0.2,3c0.3,0.8,1.1,0.8,1.8,0.8V59c-1,0-2-0.1-3-0.1    c-1,0-2.1,0.1-3.1,0.1v-0.5c0.7,0,1.5,0,1.8-0.8c0.2-0.6,0.2-2.3,0.2-3V48.2z"/>
		<path class="st2" d="M104.8,56.2c0,1.5-0.2,2.2,1.4,2.3V59c-0.7,0-1.5-0.1-2.3-0.1c-0.8,0-1.6,0.1-2.4,0.1v-0.5    c1.5-0.1,1.4-0.7,1.4-2.2v-2.9c0-1.6,0.1-3.8-1.9-3.8c-1.6,0-2.6,1.4-2.6,3.1v3.6c0,1.5-0.2,2.2,1.4,2.3V59    c-0.7,0-1.5-0.1-2.3-0.1c-0.8,0-1.6,0.1-2.4,0.1v-0.5c1.5-0.1,1.4-0.7,1.4-2.2v-2.8c0-0.6,0-2.2-0.1-2.8c-0.2-0.8-0.7-0.7-1.4-0.7    v-0.5c1.1-0.1,1.8-0.5,2.8-0.7l0.3,2.1h0c0.7-1.4,1.8-2.1,3.3-2.1c2,0,3.1,1,3.1,3.2V56.2z"/>
		<path class="st2" d="M107.9,49.9v-0.4c1-0.7,2.1-1.6,2.5-2.9h0.3v2.7h2.4v0.6h-2.4v6.5c0,1,0.2,2.1,1.3,2.1c0.7,0,1.1-0.5,1.5-1    l0.4,0.3c-0.4,1.1-1.4,1.5-2.4,1.5c-1.5,0-2.5-0.6-2.5-2.4v-7H107.9z"/>
		<path class="st2" d="M122.7,57.3c-1,1.3-2.1,1.9-3.7,1.9c-2.6,0-4.7-2-4.7-4.9c0-2.9,2-5.5,4.6-5.5c2,0,3.9,1.3,3.9,3.7    c0,0.3-0.3,0.2-0.5,0.2h-5.9l-0.1,1.1c0,2.2,1,4.6,3.2,4.6c1.1,0,2-0.8,2.6-1.7L122.7,57.3z M120,52.2c0.3,0,1,0.1,1-0.5    c0-1.4-0.7-2.3-2-2.3c-1.5,0-2.2,1.3-2.4,2.8H120z"/>
		<path class="st2" d="M126.1,53.5c0-0.6,0-2.2-0.1-2.8c-0.2-0.8-0.7-0.7-1.4-0.7v-0.5c1-0.1,1.9-0.5,2.8-0.7    c0.2,0.7,0.3,1.5,0.2,2.3h0c0.5-1.4,1.6-2.3,3-2.3c0.6,0,1.5,0.3,1.5,1.2c0,0.4-0.3,0.8-0.7,0.8c-0.9,0-0.7-1.2-1.5-1.2    c-0.6,0-1.3,0.6-1.6,1.1c-0.5,0.9-0.5,2.1-0.5,3.1v2.3c0,1.7-0.2,2.2,1.6,2.3V59c-0.8,0-1.6-0.1-2.4-0.1c-0.8,0-1.6,0.1-2.4,0.1    v-0.5c1.5-0.1,1.4-0.7,1.4-2.2V53.5z"/>
		<path class="st2" d="M142.4,56.2c0,1.5-0.2,2.2,1.4,2.3V59c-0.7,0-1.5-0.1-2.2-0.1c-0.8,0-1.6,0.1-2.4,0.1v-0.5    c1.5-0.1,1.4-0.7,1.4-2.2v-2.9c0-1.6,0.1-3.8-1.9-3.8c-1.6,0-2.6,1.4-2.6,3.1v3.6c0,1.5-0.2,2.2,1.4,2.3V59    c-0.7,0-1.5-0.1-2.3-0.1c-0.8,0-1.6,0.1-2.4,0.1v-0.5c1.5-0.1,1.4-0.7,1.4-2.2v-2.8c0-0.6,0-2.2-0.1-2.8c-0.2-0.8-0.7-0.7-1.4-0.7    v-0.5c1.1-0.1,1.8-0.5,2.8-0.7l0.3,2.1h0c0.7-1.4,1.8-2.1,3.3-2.1c2,0,3.1,1,3.1,3.2V56.2z"/>
		<path class="st2" d="M150.6,52.7c0.2-0.1,0.2-0.4,0.2-0.7c0-1.6-0.1-2.7-1.8-2.7c-1,0-1.9,0.1-1.9,1.3c0,0.5-0.3,1-0.8,1    c-0.5,0-0.8-0.3-0.8-0.8c0-1.7,2.7-2,3.8-2c2.3,0,3.3,0.7,3.3,3.3v3.8c0,0.6-0.1,2.3,0.7,2.3c0.4,0,0.6-0.4,0.8-0.7l0.4,0.2    c-0.3,0.8-1.1,1.5-1.9,1.5c-0.8,0-1.6-0.7-1.8-1.6c-1,0.9-2.2,1.6-3.4,1.6c-1.1,0-2.1-0.7-2.1-2c0-1.9,2-2.8,3.3-3.4L150.6,52.7z     M150.7,53.3c-1.2,0.7-3.6,1.6-3.6,3.4c0,0.8,0.5,1.7,1.3,1.7c0.8,0,1.7-0.7,2.3-1.3V53.3z"/>
		<path class="st2" d="M158.2,56.2c0,1.5-0.2,2.2,1.4,2.3V59c-0.8,0-1.6-0.1-2.4-0.1c-0.8,0-1.5,0.1-2.3,0.1v-0.5    c1.5-0.1,1.4-0.7,1.4-2.2v-8.8c0-0.6,0-2-0.2-2.5c-0.2-0.6-0.9-0.5-1.3-0.6V44l3.3-0.7V56.2z"/>
		<path class="st2" d="M181.1,56c0,2.2,0.1,2.3,2,2.5V59c-1.1,0-2.1-0.1-3.1-0.1c-1,0-2.1,0.1-3.1,0.1v-0.5c2-0.2,2-0.3,2-2.5V46h0    l-2.4,6.4c-0.9,2.2-1.7,4.4-2.6,6.6h-0.2l-5-13h0v9.7c0,1.8,0.3,2.7,2,2.8V59c-0.8,0-1.5-0.1-2.3-0.1c-0.7,0-1.4,0.1-2.2,0.1v-0.5    c1.6,0,1.9-1.1,1.9-2.1v-9.8c0-0.6-0.1-1.2-0.2-1.5c-0.3-0.8-1.1-0.8-1.8-0.8v-0.5c0.7,0,1.4,0.1,2.1,0.1c0.6,0,1.3,0,1.9-0.1    l4.5,11.7l4.4-11.7c0.6,0,1.3,0.1,1.9,0.1c0.7,0,1.3,0,2-0.1v0.6c-0.7,0-1.5,0-1.8,0.8c-0.2,0.5-0.2,1.7-0.2,2.5V56z"/>
		<path class="st2" d="M192.9,57.3c-1,1.3-2.1,1.9-3.7,1.9c-2.6,0-4.7-2-4.7-4.9c0-2.9,2-5.5,4.6-5.5c2,0,3.9,1.3,3.9,3.7    c0,0.3-0.3,0.2-0.5,0.2h-5.9l-0.1,1.1c0,2.2,1,4.6,3.2,4.6c1.1,0,2-0.8,2.6-1.7L192.9,57.3z M190.2,52.2c0.3,0,1,0.1,1-0.5    c0-1.4-0.7-2.3-2-2.3c-1.5,0-2.2,1.3-2.4,2.8H190.2z"/>
		<path class="st2" d="M202.9,59.2c-0.2-0.5-0.4-1.1-0.4-1.7c-0.9,1.2-1.8,1.7-3.2,1.7c-2.6,0-4.4-2.2-4.4-5.1    c0-2.8,1.8-5.3,4.4-5.3c1.1,0,2.2,0.5,3,1.4v-3.6c0-1.4-0.1-2.1-1.5-2.2V44l3.3-0.7v11.6c0,0.6,0,1.8,0.2,2.4    c0.3,0.8,0.8,0.8,1.5,0.8v0.5L202.9,59.2z M202.2,51.9c0-1.4-1.3-2.3-2.5-2.3c-2.2,0-2.8,2.6-2.8,4.6c0,2.1,0.6,4.4,2.8,4.4    c1.9,0,2.5-1.6,2.5-3.4V51.9z"/>
		<path class="st2" d="M209.8,48.9v7.4c0,1.5-0.2,2.2,1.4,2.3V59c-0.7,0-1.5-0.1-2.2-0.1c-0.8,0-1.6,0.1-2.4,0.1v-0.5    c1.5-0.1,1.4-0.7,1.4-2.2v-3.3c0-0.4,0-2.2-0.1-2.5c-0.1-0.6-1-0.5-1.4-0.5v-0.5L209.8,48.9z M207.6,44.8c0-0.7,0.5-1.2,1.1-1.2    c0.6,0,1.1,0.6,1.1,1.2c0,0.7-0.5,1.2-1.1,1.2C208.1,46,207.6,45.5,207.6,44.8z"/>
		<path class="st2" d="M220.7,57.5c-0.9,1.2-2.3,1.8-3.6,1.8c-2.6,0-4.4-2-4.4-4.9c0-3.2,2.2-5.5,5.1-5.5c0.8,0,2.7,0.3,2.7,1.5    c0,0.4-0.3,0.8-0.7,0.8c-0.5,0-0.8-0.5-0.9-0.9c-0.2-0.7-0.4-0.9-1.2-0.9c-2.2,0-2.9,2.5-2.9,4.5c0,2.2,0.6,4.5,3,4.5    c1,0,1.9-0.6,2.6-1.4L220.7,57.5z"/>
		<path class="st2" d="M225.1,48.9v7.4c0,1.5-0.2,2.2,1.4,2.3V59c-0.7,0-1.5-0.1-2.2-0.1c-0.8,0-1.6,0.1-2.4,0.1v-0.5    c1.5-0.1,1.4-0.7,1.4-2.2v-3.3c0-0.4,0-2.2-0.1-2.5c-0.1-0.6-1-0.5-1.4-0.5v-0.5L225.1,48.9z M222.9,44.8c0-0.7,0.5-1.2,1.1-1.2    c0.6,0,1.1,0.6,1.1,1.2c0,0.7-0.5,1.2-1.1,1.2C223.4,46,222.9,45.5,222.9,44.8z"/>
		<path class="st2" d="M237.3,56.2c0,1.5-0.2,2.2,1.4,2.3V59c-0.7,0-1.5-0.1-2.2-0.1c-0.8,0-1.6,0.1-2.4,0.1v-0.5    c1.5-0.1,1.4-0.7,1.4-2.2v-2.9c0-1.6,0.1-3.8-1.9-3.8c-1.6,0-2.6,1.4-2.6,3.1v3.6c0,1.5-0.2,2.2,1.4,2.3V59    c-0.7,0-1.5-0.1-2.2-0.1c-0.8,0-1.6,0.1-2.4,0.1v-0.5c1.5-0.1,1.4-0.7,1.4-2.2v-2.8c0-0.6,0-2.2-0.1-2.8c-0.2-0.8-0.7-0.7-1.4-0.7    v-0.5c1.1-0.1,1.8-0.5,2.8-0.7l0.3,2.1h0c0.7-1.4,1.8-2.1,3.3-2.1c2,0,3.1,1,3.1,3.2V56.2z"/>
		<path class="st2" d="M248.6,57.3c-1,1.3-2.1,1.9-3.7,1.9c-2.6,0-4.7-2-4.7-4.9c0-2.9,2-5.5,4.6-5.5c2,0,3.9,1.3,3.9,3.7    c0,0.3-0.3,0.2-0.5,0.2h-5.9l-0.1,1.1c0,2.2,1,4.6,3.2,4.6c1.1,0,2-0.8,2.6-1.7L248.6,57.3z M246,52.2c0.3,0,1,0.1,1-0.5    c0-1.4-0.7-2.3-2-2.3c-1.5,0-2.2,1.3-2.4,2.8H246z"/>
	</g>
	<g>
		<path class="st2" d="M250.9,45.9c0-1.4,1.1-2.6,2.6-2.6c1.4,0,2.6,1.2,2.6,2.6c0,1.5-1.1,2.6-2.6,2.6    C252,48.6,250.9,47.4,250.9,45.9z M255.7,45.9c0-1.3-1-2.3-2.2-2.3c-1.2,0-2.2,1-2.2,2.3c0,1.3,1,2.3,2.2,2.3    C254.7,48.2,255.7,47.2,255.7,45.9z M253,46.9c0,0.3,0.1,0.3,0.4,0.3v0.1h-1.1v-0.1c0.2,0,0.3,0,0.3-0.2v-2.2    c0-0.2-0.1-0.2-0.4-0.2v-0.1h1.3c0.5,0,0.9,0.2,0.9,0.7c0,0.5-0.4,0.7-0.8,0.7v0h0v0h0c0.3,0,0.5,0.5,0.6,0.7    c0.1,0.1,0.1,0.3,0.2,0.4c0.1,0.1,0.2,0.1,0.3,0.1v0.1h-0.3c-0.1,0-0.2,0-0.3-0.1c-0.1-0.1-0.2-0.4-0.3-0.6    c-0.1-0.2-0.2-0.5-0.3-0.6c-0.1-0.1-0.3-0.1-0.4-0.1H253V46.9z M253.2,45.8c0.4,0,0.9-0.1,0.9-0.6c0-0.4-0.3-0.6-0.7-0.6h-0.2    c-0.2,0-0.2,0.1-0.2,0.3v1H253.2z"/>
	</g>
</g>
</svg>