<?xml version="1.0" encoding="utf-8"?>
<!-- Generator: Adobe Illustrator 23.0.3, SVG Export Plug-In . SVG Version: 6.00 Build 0)  -->
<svg version="1.1" xmlns="http://www.w3.org/2000/svg" xmlns:xlink="http://www.w3.org/1999/xlink" x="0px" y="0px"
	 viewBox="0 0 296 267" style="enable-background:new 0 0 296 267;" xml:space="preserve">
<style type="text/css">
	.st0{display:none;}
	.st1{display:inline;}
	.st2{fill-rule:evenodd;clip-rule:evenodd;fill:#4467BE;}
	.st3{fill:#FFFFFF;}
	.st4{fill:none;stroke:#002B49;stroke-width:1.2191;stroke-miterlimit:10;}
	.st5{fill:#006098;}
	.st6{fill:#002B49;}
</style>
<g id="Layer_1" class="st0">
	<title>logo-blue</title>
	<desc>Created with Sketch.</desc>
	<g id="Symbols" class="st1">
		<g id="Header" transform="translate(-70.000000, -91.000000)">
			<g id="Page-1" transform="translate(70.000000, 91.000000)">
				<path id="logo-blue" class="st2" d="M103.4,125.2c3.8,0,7.7,0.2,11.5-0.1c1-0.7,1.7-1.8,1.4-3.1c0-4,0.2-8-0.1-12
					c-0.2-0.9-1.3-1.3-2-1.8c-2.3-1.4-5-0.9-7.6-1.1c0-1.5,0-3,0-4.5c2,0,4,0,6-0.2c2.1-0.6,3.2-2.7,3.6-4.7
					c0.2-2.8,0.2-5.6-0.1-8.4c-0.2-1.5-1.4-2.8-2.8-3.4c-3.3-0.2-6.6,0-10,0C103.4,99,103.4,112.1,103.4,125.2L103.4,125.2z
					 M99.6,129.8c0-16.2,0-32.3,0-48.5c5.5,0.1,11-0.1,16.5,0c2.1,0.1,3.2,2.1,4.1,3.7c0.8,1.4,0.7,3,0.8,4.6
					c0,3.6,0.2,7.1-0.2,10.7c-0.5,1.7-1.8,3-3,4.2c1,0.8,2.1,1.5,2.8,2.5c0.8,1,0.5,2.4,0.6,3.7c0,4.2,0.1,8.4-0.1,12.6
					c-0.7,2.4-1.8,5.3-4.3,6.4c-1,0.1-1.9,0.1-2.9,0.1h-8.8C103.3,129.8,101.4,129.7,99.6,129.8L99.6,129.8z M64,129.8
					c6.9-13,13.9-26,20.8-39c0.9-1.6,1.9-3.3,3.6-4.2c1.5-0.2,3-0.1,4.5-0.2c0,5.4,0,10.8,0,16.2c-3.9,0-7.7,0-11.6,0
					c0,1.7,0,3.4,0,5.1c3.9,0,7.7,0,11.6,0c0,7.4,0,14.7,0,22.1h4c0-16.2,0-32.3,0-48.5c-3.4,0-6.8-0.2-10.1,0.1
					c-2.4,0.6-3.5,3.1-4.7,4.9c-3.3,6-6.5,12-9.7,18c-4.4,8.5-8.9,16.9-13.3,25.3H64z M127.9,86.4c3.6,0,7.1-0.2,10.7,0.1
					c1.2,0.3,1.5,1.8,2,2.8c0.9,3.1,0.7,6.4,0,9.5c-0.4,1.2-0.5,2.8-1.9,3.2c-2.5,1-5.2,0.4-7.8,0.6c0,1.7,0,3.4,0,5.1
					c2.5,0,5,0.1,7.5-0.1c1.7-0.2,3.5-0.7,4.5-2.1c2.1-2.7,2.5-6.1,2.7-9.4c0-4.2,0-8.9-2.5-12.6c-0.8-1.1-2-2.1-3.4-2.2
					c-5.4-0.1-10.8,0-16.2,0c0,16.2,0,32.3,0,48.5c1.4,0,2.9,0,4.3,0C127.9,115.3,127.9,100.9,127.9,86.4L127.9,86.4z M147.3,129.8
					c0-16.2,0-32.4,0-48.6c2.8,0,5.9-0.9,7.6,1.6c1.1,2.7,1.5,7,2.3,9.8c1.2-3.3,1.3-6.9,2.7-10.1c0.6-1.5,2.5-1,3.8-1.1
					c0.9,0,1.5,0.9,1.9,1.6c9.1,15.6,18.2,31.3,27.3,46.9H188c-4.3-7.3-8.5-14.6-12.8-21.9c-3.8-6.3-7.2-12.8-11.2-19
					c-0.4,0-0.8,0-1.1,0c-1.8,5.7-2.9,11.5-4.4,17.2c-0.6,0-1.8,0-2.4,0c-1.6-5.6-2.4-11.5-4.2-17.1c-0.5,13.6-0.1,27.2-0.2,40.8
					C150.2,129.8,148.7,129.8,147.3,129.8L147.3,129.8z"/>
			</g>
		</g>
	</g>
</g>
<g id="Layer_2">
	<circle class="st3" cx="148.1" cy="132.5" r="117.7"/>
	<path class="st4" d="M149.3,23.8c-60,0-108.9,48.9-108.9,108.9c0,60,48.9,109,108.9,109c60.1,0,108.9-48.9,108.9-109
		C258.2,72.7,209.4,23.8,149.3,23.8z"/>
	<path class="st5" d="M149.3,19.4c62.5,0,113.4,50.9,113.4,113.3c0,62.5-50.9,113.4-113.4,113.4c-62.5,0-113.4-50.9-113.4-113.4
		C35.9,70.3,86.8,19.4,149.3,19.4 M149.3,8.6C80.8,8.6,25.1,64.3,25.1,132.8c0,68.5,55.7,124.2,124.2,124.2
		c68.5,0,124.2-55.7,124.2-124.2C273.5,64.3,217.8,8.6,149.3,8.6L149.3,8.6z"/>
	<path class="st6" d="M70.5,148.3c-1-5-1.5-10.2-1.5-15.5c0-5.2,0.5-10.3,1.5-15.3H11.9l7.3,15.6l-7.3,15.2H70.5z"/>
	<path class="st6" d="M286.7,117.5h-58.5c1,5,1.5,10.1,1.5,15.3c0,5.3-0.5,10.5-1.5,15.5h58.6l-7.3-15.2L286.7,117.5z"/>
	<g>
		<path class="st6" d="M72.7,100.9l-4.7-0.5l-1.9,5.4l4,2.6l-0.9,2.4l-17-11.3l1.1-3.1l20.2,2L72.7,100.9z M55,98.7l0,0.1l9.3,6
			L66,100L55,98.7z"/>
		<path class="st6" d="M81.3,85l-14-8.4l0,0.1l11.7,12.2l-1.2,1.9L61.5,86l0,0.1l14,8.4l-1.2,2L57.4,86.3l1.9-3.2l15.6,4.5l0.1-0.1
			L63.6,75.9l2-3.3l16.9,10.2L81.3,85z"/>
		<path class="st6" d="M85.3,79.8L70.6,66.6l5.6-6.2l1.7,1.5l-3.9,4.4l4.6,4.2l3.7-4.1l1.6,1.4l-3.7,4.1l5.2,4.6l4.1-4.6l1.7,1.5
			L85.3,79.8z"/>
		<path class="st6" d="M99.5,66.2l-8.2-4.7l-1.8,1.5l5.6,6.8l-1.9,1.6L80.7,56l4-3.2c0.6-0.5,1.2-0.8,1.8-1.1
			c0.6-0.3,1.3-0.4,1.9-0.4c0.6,0,1.3,0.2,1.9,0.6c0.7,0.4,1.3,0.9,1.9,1.7c0.5,0.6,0.9,1.2,1.1,1.8s0.3,1.2,0.3,1.7
			c0,0.5-0.1,1-0.2,1.5c-0.2,0.4-0.3,0.8-0.6,1.1l8.8,4.8L99.5,66.2z M90.3,55.2c-0.4-0.5-0.8-0.9-1.3-1.1c-0.4-0.2-0.8-0.3-1.2-0.3
			c-0.4,0-0.8,0.1-1.1,0.2c-0.4,0.2-0.7,0.4-1,0.6L84,56.1l4.4,5.3l1.8-1.5c0.7-0.6,1.1-1.3,1.2-2.2C91.4,57,91,56.1,90.3,55.2z"/>
		<path class="st6" d="M104.1,63L93.6,46.3l2.1-1.3l10.6,16.7L104.1,63z"/>
		<path class="st6" d="M118,55.4c-0.5,0.8-1.3,1.4-2.3,1.9c-1,0.5-2,0.7-3,0.6c-1-0.1-2-0.4-2.9-1c-0.9-0.6-1.8-1.4-2.6-2.4
			c-0.8-1-1.5-2.2-2.2-3.5c-0.6-1.3-1.1-2.7-1.3-3.9c-0.2-1.3-0.3-2.5-0.1-3.6c0.2-1.1,0.5-2.1,1.1-2.9c0.6-0.8,1.3-1.5,2.3-1.9
			c0.9-0.4,1.8-0.6,2.8-0.6c0.9,0,1.8,0.2,2.6,0.7l-0.7,2.2c-0.6-0.4-1.2-0.6-1.9-0.6c-0.6,0-1.2,0.1-1.8,0.3
			c-0.7,0.3-1.2,0.8-1.5,1.4c-0.3,0.6-0.5,1.3-0.5,2.2s0.1,1.7,0.3,2.7c0.2,1,0.6,1.9,1.1,2.9c0.5,1,1,1.9,1.6,2.7
			c0.6,0.8,1.2,1.4,1.8,2c0.6,0.5,1.3,0.8,2,1c0.7,0.1,1.4,0.1,2.1-0.3c0.6-0.3,1.1-0.7,1.4-1.3c0.3-0.6,0.5-1.2,0.6-1.8l2.1,0.8
			C118.8,53.8,118.5,54.6,118,55.4z"/>
		<path class="st6" d="M130.1,51.8l-2.4-4.1l-5.5,1.6l0.2,4.8l-2.4,0.7l-0.7-20.4l3.2-0.9L132.6,51L130.1,51.8z M121.5,36.1l-0.1,0
			l0.6,11.1l4.9-1.4L121.5,36.1z"/>
		<path class="st6" d="M143.4,49.8l-7.9-14.6l-0.1,0l1.6,15.2l-2.3,0.2L132.6,31l3-0.3l7.8,14.6l0.1,0l-1.6-15.3l2.3-0.2l2.1,19.7
			L143.4,49.8z"/>
		<path class="st6" d="M164.6,40.4c0.3,0.1,0.7,0.3,1.1,0.6c0.4,0.3,0.7,0.6,1,1.1c0.3,0.4,0.5,1,0.6,1.6c0.1,0.6,0.2,1.3,0,2.1
			c-0.1,1-0.4,1.8-0.8,2.5c-0.4,0.6-0.9,1.1-1.5,1.5c-0.6,0.4-1.2,0.6-1.8,0.7c-0.7,0.1-1.3,0.1-1.9,0l-5.3-0.7l2.7-19.6l4.7,0.6
			c0.6,0.1,1.1,0.2,1.7,0.4c0.6,0.2,1.1,0.6,1.6,1c0.5,0.4,0.8,1,1.1,1.7c0.2,0.7,0.3,1.5,0.2,2.4c-0.1,0.6-0.2,1.2-0.5,1.7
			c-0.2,0.5-0.5,0.9-0.8,1.2c-0.3,0.3-0.6,0.6-1,0.8S164.9,40.3,164.6,40.4L164.6,40.4z M164.8,45.3c0.1-0.7,0.1-1.3-0.1-1.8
			c-0.1-0.5-0.4-0.9-0.7-1.3c-0.3-0.3-0.6-0.6-1-0.8c-0.4-0.2-0.8-0.3-1.2-0.4l-2.3-0.3l-1,7.1l2.4,0.3c0.5,0.1,0.9,0.1,1.3,0
			c0.4-0.1,0.8-0.2,1.2-0.5c0.3-0.2,0.6-0.6,0.9-1C164.5,46.4,164.7,45.9,164.8,45.3z M165.5,36.4c0.1-0.6,0.1-1.1-0.1-1.5
			c-0.1-0.4-0.3-0.8-0.6-1.1c-0.3-0.3-0.6-0.5-0.9-0.7s-0.7-0.3-1.2-0.3l-2.1-0.3l-0.9,6.3l2.1,0.3c0.4,0.1,0.7,0,1.1,0
			c0.4-0.1,0.8-0.2,1.1-0.4c0.3-0.2,0.6-0.5,0.9-0.9C165.2,37.5,165.4,37,165.5,36.4z"/>
		<path class="st6" d="M184.5,46.4c-0.5,1.5-1.1,2.8-1.8,3.9c-0.7,1.1-1.5,2-2.3,2.7c-0.8,0.7-1.7,1.1-2.7,1.4
			c-0.9,0.2-1.9,0.2-2.9-0.2c-1-0.3-1.8-0.9-2.5-1.6c-0.6-0.7-1.1-1.6-1.4-2.7c-0.3-1-0.4-2.2-0.3-3.5c0.1-1.3,0.4-2.7,0.9-4.2
			c0.5-1.5,1.1-2.8,1.7-3.9c0.7-1.1,1.4-2,2.3-2.7c0.8-0.7,1.7-1.1,2.7-1.3c1-0.2,2-0.1,3,0.2c1,0.3,1.8,0.9,2.5,1.6
			c0.6,0.7,1.1,1.6,1.4,2.6c0.3,1,0.4,2.2,0.3,3.5C185.3,43.5,185,44.9,184.5,46.4z M182,45.6c0.3-1.1,0.6-2.1,0.7-3.1
			s0.2-1.9,0.1-2.7c-0.1-0.8-0.3-1.5-0.7-2c-0.4-0.6-0.9-0.9-1.5-1.1c-0.7-0.2-1.3-0.2-1.9,0c-0.6,0.2-1.2,0.6-1.8,1.2
			c-0.6,0.6-1.1,1.3-1.5,2.2c-0.5,0.9-0.9,1.9-1.2,2.9c-0.3,1.1-0.6,2.1-0.7,3.1c-0.1,1-0.2,1.9-0.1,2.7c0.1,0.8,0.3,1.5,0.7,2
			c0.4,0.6,0.9,0.9,1.5,1.2c0.6,0.2,1.3,0.2,1.9,0s1.2-0.7,1.8-1.2s1.1-1.3,1.5-2.2C181.2,47.6,181.6,46.6,182,45.6z"/>
		<path class="st6" d="M191.7,61.2l1.2-4.6l-5-2.7l-3.2,3.5l-2.2-1.2l13.7-15.1l2.9,1.6l-5,19.7L191.7,61.2z M196.5,44L196.5,44
			l-7.4,8.3l4.5,2.4L196.5,44z"/>
		<path class="st6" d="M202.2,68.7l2.7-9l-1.8-1.4l-5.4,7l-2-1.5l12-15.7l4.1,3.1c0.6,0.4,1.1,0.9,1.5,1.5c0.4,0.5,0.7,1.1,0.8,1.8
			c0.1,0.6,0.1,1.3-0.1,2c-0.2,0.7-0.6,1.5-1.2,2.2c-0.5,0.6-1,1.1-1.5,1.5c-0.5,0.3-1,0.6-1.6,0.7c-0.5,0.1-1,0.2-1.5,0.1
			c-0.5,0-0.9-0.2-1.2-0.3l-2.7,9.6L202.2,68.7z M210.7,57.2c0.4-0.5,0.7-1,0.8-1.5c0.1-0.5,0.1-0.9,0.1-1.3
			c-0.1-0.4-0.2-0.7-0.5-1.1c-0.2-0.3-0.5-0.6-0.8-0.8l-1.8-1.4l-4.2,5.5l1.8,1.4c0.8,0.6,1.5,0.8,2.4,0.7
			C209.3,58.6,210.1,58.1,210.7,57.2z"/>
		<path class="st6" d="M221.6,74.3c-2.4,2.2-4.6,3.3-6.7,3.5c-2.1,0.2-4-0.6-5.6-2.3l-3.1-3.3l14.5-13.4l3.1,3.3
			c1.6,1.7,2.2,3.6,1.8,5.7C225.4,70,224,72.1,221.6,74.3z M219.9,72.4c1-0.9,1.7-1.7,2.2-2.6c0.5-0.8,0.9-1.6,1.1-2.4
			c0.2-0.7,0.2-1.5,0-2.1c-0.2-0.7-0.5-1.2-1-1.7l-1.4-1.5l-11.3,10.4L211,74c0.5,0.5,1,0.9,1.7,1.1c0.6,0.2,1.3,0.3,2.1,0.2
			c0.8-0.1,1.6-0.4,2.5-0.9C218.1,74,219,73.3,219.9,72.4z"/>
		<path class="st6" d="M234.1,94.6c-1.4,0.7-2.7,1.3-3.9,1.6c-1.3,0.3-2.4,0.5-3.5,0.4c-1.1-0.1-2-0.4-2.9-0.9
			c-0.8-0.5-1.5-1.2-2-2.1c-0.5-0.9-0.7-1.9-0.7-2.9c0-1,0.3-1.9,0.9-2.9c0.5-0.9,1.3-1.9,2.3-2.7c1-0.9,2.1-1.7,3.5-2.4
			c1.4-0.7,2.7-1.3,3.9-1.6c1.3-0.3,2.4-0.5,3.5-0.4c1.1,0.1,2,0.4,2.9,0.9c0.8,0.5,1.5,1.2,2,2.2c0.5,0.9,0.7,1.9,0.7,2.8
			c0,1-0.3,1.9-0.8,2.9c-0.5,0.9-1.3,1.9-2.2,2.7C236.6,93,235.5,93.8,234.1,94.6z M232.9,92.2c1-0.5,1.9-1.1,2.7-1.7
			c0.8-0.6,1.4-1.3,1.9-1.9c0.5-0.6,0.8-1.3,0.9-1.9c0.1-0.6,0-1.3-0.3-1.9c-0.3-0.6-0.8-1-1.4-1.3c-0.6-0.3-1.3-0.4-2.1-0.3
			c-0.8,0-1.7,0.2-2.6,0.5c-0.9,0.3-1.9,0.7-2.9,1.3c-1,0.5-1.9,1.1-2.7,1.7c-0.8,0.6-1.4,1.2-1.9,1.9c-0.5,0.6-0.8,1.3-0.9,2
			c-0.1,0.7,0,1.3,0.3,1.9c0.3,0.6,0.8,1,1.4,1.3c0.6,0.3,1.3,0.4,2.1,0.3c0.8,0,1.7-0.2,2.6-0.5C230.9,93.2,231.9,92.7,232.9,92.2z
			"/>
		<path class="st6" d="M243.8,99l-6,2.1l1.7,5.1l-2.1,0.7l-1.7-5.1l-8.5,2.9l-0.8-2.4l18.7-6.4l2.7,7.9l-2.2,0.7L243.8,99z"/>
	</g>
	<g>
		<path class="st6" d="M66.7,166.3c-0.9,0.3-1.7,0.4-2.5,0.4c-0.8,0-1.5-0.2-2.1-0.5c-0.6-0.3-1.1-0.7-1.5-1.2
			c-0.4-0.5-0.7-1.1-1-1.7l-0.9-2.5l-8,2.7l-0.8-2.4l18.7-6.3l1.6,4.7c0.2,0.6,0.3,1.2,0.3,1.8c0,0.6-0.1,1.3-0.3,1.9
			c-0.2,0.6-0.7,1.2-1.2,1.7C68.5,165.5,67.7,165.9,66.7,166.3z M65.9,163.9c1.1-0.4,1.9-0.9,2.2-1.6c0.3-0.7,0.4-1.5,0.1-2.3
			l-0.7-2.1l-6.7,2.3l0.7,2.1c0.3,0.8,0.8,1.4,1.6,1.8C63.8,164.3,64.7,164.3,65.9,163.9z"/>
		<path class="st6" d="M59.2,183l6.3-7.1l-1.1-2l-7.8,4.1l-1.1-2.2l17.5-9.1l2.4,4.5c0.3,0.6,0.6,1.3,0.7,2c0.1,0.7,0.1,1.3,0,1.9
			c-0.2,0.6-0.5,1.2-1,1.8s-1.2,1.1-2,1.5c-0.7,0.4-1.4,0.6-2,0.7c-0.6,0.1-1.2,0.1-1.7,0c-0.5-0.1-1-0.3-1.4-0.5
			c-0.4-0.2-0.7-0.5-1-0.8l-6.5,7.6L59.2,183z M71.8,176.3c0.6-0.3,1-0.6,1.3-1c0.3-0.4,0.5-0.7,0.6-1.1c0.1-0.4,0.1-0.8,0-1.2
			c-0.1-0.4-0.2-0.8-0.4-1.1l-1-2l-6.1,3.2l1.1,2.1c0.4,0.8,1.1,1.4,1.9,1.6C69.9,176.9,70.8,176.8,71.8,176.3z"/>
		<path class="st6" d="M63.4,189.9l16-11.6l4.9,6.7l-1.8,1.3l-3.5-4.8l-5,3.7l3.2,4.5l-1.7,1.2l-3.2-4.5l-5.6,4.1l3.6,5l-1.8,1.3
			L63.4,189.9z"/>
		<path class="st6" d="M76.4,205.5l-2.3-2.3l10.8-17.3l1.9,2l-9.4,14.5l0,0l14.7-9.1l1.9,1.9L76.4,205.5z"/>
		<path class="st6" d="M83.5,212l12-15.7l6.6,5.1l-1.4,1.8l-4.7-3.6l-3.8,4.9l4.4,3.3l-1.3,1.7l-4.4-3.3l-4.2,5.5l4.9,3.8l-1.4,1.8
			L83.5,212z"/>
		<path class="st6" d="M102.9,224.6l1.7-16.5l-0.1,0l-7.3,13.5l-2-1.1l9.4-17.4l2.7,1.4l-1.8,16.5l0.1,0l7.3-13.5l2,1.1l-9.4,17.4
			L102.9,224.6z"/>
		<path class="st6" d="M121.6,213.4l-5.9,16.6l-2.4-0.8l5.9-16.6l-3.5-1.3l0.7-2l9.5,3.4l-0.7,2L121.6,213.4z"/>
		<path class="st6" d="M123,232.2l4.8-19.2l2.4,0.6l-4.8,19.2L123,232.2z"/>
		<path class="st6" d="M137.7,235l-3.2-0.4l-2.3-20.2l2.7,0.3l1.6,17.2l0.1,0l5.9-16.3l2.7,0.3L137.7,235z"/>
		<path class="st6" d="M147.4,235.6l-0.3-19.8l8.3-0.1l0,2.2l-5.9,0.1l0.1,6.2l5.5-0.1l0,2.1l-5.5,0.1l0.1,6.9l6.2-0.1l0,2.3
			L147.4,235.6z"/>
		<path class="st6" d="M181.8,230.5l-4.3-15.8l-0.1,0l0,16.9l-2.2,0.6l-8.5-14.6l-0.1,0l4.3,15.8l-2.2,0.6l-5.2-19.1l3.6-1l8.2,14
			l0.1,0l-0.1-16.2l3.7-1l5.2,19.1L181.8,230.5z"/>
		<path class="st6" d="M190.8,227l-8.6-17.8l7.5-3.6l1,2l-5.3,2.6l2.7,5.6l5-2.4l0.9,1.9l-5,2.4l3,6.3l5.6-2.7l1,2L190.8,227z"/>
		<path class="st6" d="M207.8,205.4c1.8,2.6,2.7,5,2.6,7.1c-0.1,2.1-1.1,3.9-3,5.2l-3.7,2.6l-11.3-16.2l3.7-2.6
			c1.9-1.3,3.9-1.7,5.9-1C204.1,201.1,206,202.8,207.8,205.4z M205.8,206.8c-0.7-1.1-1.5-1.9-2.3-2.6c-0.8-0.7-1.5-1.1-2.2-1.4
			c-0.7-0.3-1.4-0.4-2.1-0.3c-0.7,0.1-1.3,0.3-1.9,0.7l-1.7,1.2l8.8,12.6l1.7-1.2c0.6-0.4,1-0.9,1.3-1.5c0.3-0.6,0.5-1.3,0.5-2.1
			c0-0.8-0.2-1.6-0.5-2.5C207,208.9,206.5,207.9,205.8,206.8z"/>
		<path class="st6" d="M217.7,209.7l-13.3-14.6l1.9-1.7l13.3,14.6L217.7,209.7z"/>
		<path class="st6" d="M229.9,196.7c-0.2,0.9-0.6,1.8-1.3,2.6c-0.7,0.8-1.6,1.4-2.5,1.7c-1,0.3-2,0.4-3.1,0.2
			c-1.1-0.2-2.2-0.5-3.4-1.1c-1.2-0.6-2.3-1.4-3.4-2.3c-1.1-1-2.1-2-2.8-3.1c-0.7-1.1-1.3-2.1-1.6-3.2c-0.3-1.1-0.4-2.1-0.2-3.1
			c0.2-1,0.6-1.9,1.3-2.7c0.7-0.8,1.4-1.3,2.3-1.7c0.8-0.4,1.7-0.5,2.7-0.4l0.3,2.3c-0.7-0.1-1.4,0-1.9,0.2c-0.6,0.2-1.1,0.6-1.5,1
			c-0.5,0.6-0.8,1.2-0.8,1.9c0,0.7,0.1,1.4,0.4,2.2c0.3,0.8,0.8,1.5,1.4,2.3c0.6,0.8,1.3,1.5,2.2,2.3c0.8,0.7,1.7,1.3,2.5,1.8
			c0.9,0.5,1.7,0.8,2.5,1c0.8,0.2,1.5,0.2,2.2,0.1c0.7-0.1,1.3-0.5,1.8-1.1c0.5-0.5,0.7-1.1,0.8-1.7s0-1.3-0.2-1.9l2.2-0.1
			C230,194.9,230,195.8,229.9,196.7z"/>
		<path class="st6" d="M234,191.5l-16.3-11.1l1.4-2.1l16.3,11.1L234,191.5z"/>
		<path class="st6" d="M242.9,176.1l-16.5-1.3l0,0.1l13.7,6.9l-1,2.1l-17.7-8.9l1.4-2.7l16.5,1.3l0-0.1l-13.7-6.9l1-2.1l17.7,8.9
			L242.9,176.1z"/>
		<path class="st6" d="M246.7,167l-18.8-5.9l2.5-7.9l2.1,0.7l-1.8,5.6l5.9,1.9l1.7-5.2l2,0.6l-1.7,5.2l6.6,2.1l1.9-5.9l2.2,0.7
			L246.7,167z"/>
	</g>
	<g>
		<g>
			<path class="st3" d="M31,138.2v-12.5h5.2v1.4h-3.7v3.9H36v1.3h-3.5v4.4h3.9v1.4H31z"/>
			<path class="st3" d="M44.5,134.9c0,0.6-0.1,1.1-0.3,1.5c-0.2,0.5-0.4,0.8-0.7,1.1c-0.3,0.3-0.7,0.5-1.1,0.7s-0.9,0.2-1.3,0.2
				c-0.6,0-1.2-0.1-1.8-0.4c-0.6-0.3-1-0.6-1.4-1l0.9-1.1c0.3,0.4,0.6,0.6,1,0.8s0.8,0.3,1.2,0.3c0.5,0,1-0.2,1.3-0.5
				c0.3-0.4,0.5-0.9,0.5-1.5c0-0.3-0.1-0.6-0.2-0.8c-0.1-0.2-0.3-0.5-0.4-0.7c-0.2-0.2-0.4-0.4-0.6-0.5c-0.2-0.2-0.5-0.3-0.8-0.4
				c-0.3-0.2-0.7-0.3-1-0.6c-0.3-0.2-0.6-0.4-0.8-0.7c-0.2-0.3-0.4-0.6-0.6-1c-0.1-0.4-0.2-0.8-0.2-1.3c0-0.6,0.1-1.1,0.3-1.6
				c0.2-0.4,0.4-0.8,0.7-1.1c0.3-0.3,0.7-0.5,1.1-0.7s0.8-0.2,1.2-0.2c0.6,0,1.1,0.1,1.6,0.3c0.5,0.2,0.9,0.5,1.2,0.9l-1,1.1
				c-0.4-0.6-1-0.9-1.8-0.9c-0.2,0-0.4,0-0.7,0.1c-0.2,0.1-0.4,0.2-0.6,0.4c-0.2,0.2-0.3,0.4-0.4,0.6c-0.1,0.3-0.2,0.6-0.2,0.9
				c0,0.3,0,0.6,0.1,0.8c0.1,0.2,0.2,0.4,0.4,0.6c0.2,0.2,0.4,0.3,0.6,0.5c0.2,0.1,0.5,0.3,0.7,0.4c0.3,0.2,0.7,0.4,1,0.6
				c0.3,0.2,0.6,0.4,0.9,0.7c0.3,0.3,0.5,0.6,0.6,1C44.5,134,44.5,134.4,44.5,134.9z"/>
			<path class="st3" d="M49.5,127.1v11.1h-1.6v-11.1h-2.4v-1.4h6.3v1.4H49.5z"/>
			<path class="st3" d="M54.4,137.3c0,0.3-0.1,0.6-0.3,0.8c-0.2,0.2-0.4,0.3-0.7,0.3c-0.3,0-0.5-0.1-0.7-0.3
				c-0.2-0.2-0.3-0.5-0.3-0.8c0-0.3,0.1-0.5,0.3-0.8c0.2-0.2,0.4-0.3,0.7-0.3c0.3,0,0.5,0.1,0.7,0.3C54.3,136.8,54.4,137,54.4,137.3
				z"/>
		</g>
	</g>
	<g>
		<g>
			<path class="st3" d="M244.2,138.2v-10.7l-2.2,1.7l-0.7-1.2l3-2.3h1.5v12.5H244.2z"/>
			<path class="st3" d="M248.2,129.6c0-0.6,0.1-1.2,0.3-1.7c0.2-0.5,0.4-0.9,0.7-1.3c0.3-0.4,0.7-0.6,1.1-0.8
				c0.4-0.2,0.9-0.3,1.4-0.3c0.5,0,1,0.1,1.5,0.3c0.4,0.2,0.8,0.5,1.1,0.8c0.3,0.4,0.5,0.8,0.7,1.3c0.2,0.5,0.2,1.1,0.2,1.7
				c0,0.6-0.1,1.2-0.3,1.8c-0.2,0.6-0.4,1.2-0.7,1.7l-2.5,5.1h-1.7l2.7-5.2l0,0c-0.4,0.3-0.9,0.5-1.5,0.5c-0.3,0-0.7-0.1-1-0.2
				c-0.4-0.1-0.7-0.3-1-0.6c-0.3-0.3-0.5-0.7-0.7-1.2C248.3,131,248.2,130.4,248.2,129.6z M249.8,129.6c0,0.4,0,0.7,0.1,1.1
				c0.1,0.3,0.2,0.6,0.4,0.8c0.2,0.2,0.4,0.4,0.6,0.6c0.2,0.1,0.5,0.2,0.8,0.2c0.3,0,0.6-0.1,0.8-0.2c0.2-0.1,0.4-0.3,0.6-0.6
				c0.2-0.2,0.3-0.5,0.4-0.9c0.1-0.3,0.1-0.7,0.1-1.1c0-0.8-0.2-1.5-0.5-2s-0.8-0.7-1.4-0.7c-0.6,0-1.1,0.3-1.4,0.8
				C250,128.1,249.8,128.8,249.8,129.6z"/>
			<path class="st3" d="M262,135.4v2.9h-1.4v-2.9h-4.5v-1.4l3.9-8.2h2v8.3h1.5v1.3H262z M260.6,127.3L260.6,127.3l-3.1,6.7h3.1
				V127.3z"/>
			<path class="st3" d="M271.5,134.8c0,0.5-0.1,1-0.2,1.5c-0.2,0.4-0.4,0.8-0.7,1.2c-0.3,0.3-0.7,0.6-1.1,0.7
				c-0.4,0.2-0.9,0.3-1.5,0.3c-0.5,0-1-0.1-1.4-0.3c-0.4-0.2-0.8-0.4-1.1-0.7c-0.3-0.3-0.5-0.7-0.7-1.2c-0.2-0.4-0.2-0.9-0.2-1.5
				c0-0.8,0.2-1.5,0.6-2.1c0.4-0.5,0.9-0.9,1.5-1.1v0c-0.6-0.2-1-0.6-1.3-1.1c-0.3-0.5-0.4-1.1-0.4-1.7c0-0.4,0.1-0.8,0.2-1.2
				c0.1-0.4,0.3-0.7,0.6-1c0.3-0.3,0.6-0.5,1-0.7s0.9-0.3,1.4-0.3c0.5,0,1,0.1,1.4,0.3c0.4,0.2,0.7,0.4,1,0.7c0.3,0.3,0.5,0.6,0.6,1
				c0.1,0.4,0.2,0.8,0.2,1.2c0,0.7-0.1,1.2-0.4,1.7c-0.3,0.5-0.7,0.8-1.3,1.1v0c0.6,0.2,1.1,0.6,1.5,1.1
				C271.3,133.3,271.5,134,271.5,134.8z M269.8,134.7c0-0.7-0.2-1.3-0.5-1.8c-0.3-0.5-0.8-0.7-1.4-0.7c-0.6,0-1,0.2-1.3,0.7
				c-0.3,0.5-0.5,1.1-0.5,1.8c0,0.4,0,0.7,0.1,1c0.1,0.3,0.2,0.6,0.4,0.8c0.2,0.2,0.4,0.4,0.6,0.5c0.2,0.1,0.5,0.2,0.8,0.2
				s0.6-0.1,0.8-0.2c0.2-0.1,0.4-0.3,0.6-0.5c0.2-0.2,0.3-0.5,0.4-0.8C269.8,135.4,269.8,135.1,269.8,134.7z M269.6,128.9
				c0-0.6-0.1-1.1-0.4-1.5c-0.3-0.4-0.7-0.6-1.2-0.6c-0.5,0-0.9,0.2-1.2,0.6c-0.3,0.4-0.4,0.9-0.4,1.5c0,0.3,0,0.6,0.1,0.8
				c0.1,0.3,0.2,0.5,0.3,0.7c0.1,0.2,0.3,0.4,0.5,0.5c0.2,0.1,0.4,0.2,0.7,0.2c0.2,0,0.5-0.1,0.7-0.2c0.2-0.1,0.4-0.3,0.5-0.5
				c0.1-0.2,0.2-0.4,0.3-0.7C269.6,129.4,269.6,129.1,269.6,128.9z"/>
		</g>
	</g>
	<g>
		<path class="st5" d="M95.1,96.7c8-11.9,19.8-21,33.6-25.7c-5.3,5.1-9.7,12.2-13.2,20.7l0.3-0.1c2.2-1.8,5.2-3.5,8.9-5.4
			c0,0,0.1,0,0.1-0.1c5.8-10.3,13.5-17,22-18.3v13.8c0.2-0.1,0.3-0.2,0.5-0.2c0.8-0.2,1.6-0.3,2.4-0.3c1.1,0,2.2,0.3,3.1,0.7V67.8
			c8.6,1.3,16.3,8.1,22.1,18.6c1.5,0.9,3,1.8,4.4,2.6c1.6,1,3.1,2,4.5,2.6l0.4,0.2c-3.5-8.5-8-15.6-13.3-20.8
			c13.9,4.7,25.6,13.9,33.6,25.8c2.5,0.4,5,0.7,7.7,1c-12.4-21.7-35.7-36.3-62.4-36.3c-26.8,0-50.1,14.7-62.5,36.5
			C89.9,97.6,92.5,97.2,95.1,96.7z"/>
		<path class="st5" d="M144.7,202v-3.5c-10.5-2.7-19.6-13.7-25.1-29.3h25.1v-1.8c-1.9-1-3.8-2.3-5.2-4.2h-21.8
			c-2.3-8.1-3.7-17.3-3.9-26.9h29.1c-2.3-1.2-4.6-2.4-6.8-4.4c-0.5-0.5-1-1-1.4-1.6h-20.8c0.1-5.4,0.6-10.7,1.4-15.7
			c-1.9-0.4-3.8-1-5.5-2.1l-0.2-0.1c-1,5.7-1.6,11.6-1.7,17.9H84c0.4-8.1,2.2-15.9,5.3-23c-2-0.9-3.6-2.2-4.8-3.9
			c-4.2,9.1-6.5,19.2-6.5,29.9c0,38.3,30.1,69.7,67.9,71.7C145.2,204.2,144.7,203.2,144.7,202z M84,136.3h23.9
			c0.2,9.6,1.5,18.7,3.6,26.9H91.1C86.9,155.1,84.4,146,84,136.3z M94.6,169.2h18.7c3.6,11,8.9,20.2,15.4,26.4
			C114.6,190.9,102.6,181.5,94.6,169.2z"/>
		<path class="st5" d="M214.6,102.8l-0.1,0.1c-1.2,1.7-2.8,3.1-4.6,4c3.2,7.2,5.1,15.2,5.5,23.5h-23.9c-0.1-6.4-0.8-12.4-1.8-18.2
			c-0.1,0-0.1,0-0.2,0l0,0c-1.6,1.2-3.5,2-5.4,2.5c0.8,5,1.3,10.3,1.5,15.7h-30c0.9,0.6,1.8,1.2,2.6,1.9c1.4,1.4,2.3,2.7,2.8,4.1
			h24.6c-0.2,9.7-1.6,18.8-3.9,26.9h-26.1c1.8,1.2,3.4,3.1,3.6,6h20.6c-5.6,15.6-14.7,26.7-25.2,29.3v3.5c0,1.2-0.4,2.2-1.1,3
			c37.9-1.9,68.1-33.4,68.1-71.7C221.5,122.4,219,112,214.6,102.8z M170.8,195.7c6.4-6.3,11.7-15.4,15.4-26.4h18.7
			C196.8,181.5,184.9,190.9,170.8,195.7z M208.3,163.3h-20.4c2.1-8.2,3.4-17.3,3.6-26.9h23.9C215,146,212.5,155.1,208.3,163.3z"/>
	</g>
	<g>
		<path class="st6" d="M151,93.3c5.4-1.3,3.3-10.6-2.9-8.9c-2.1,0.6-3,2.2-3.1,3.4C144.3,92.1,148.2,94,151,93.3z"/>
		<path class="st6" d="M132.1,97c-1.2,0.5-2.8,0.5-3.4,1.4c1.9,2,4.8,2,8,2c-0.7,0.2-1.6,0.3-2,0.9c2.2,0.9,3.8,3.2,7.2,2
			c-0.1,0.6-1.1,0.3-1.1,0.9c2.3,0.6,5.8,0.1,8.6,0.3c-0.5-1.5-1.2-2.8-2-4c-5.4,0.1-7-2.6-7.2-6.9c-0.1-2.2,0.8-4.6-0.3-6.3
			c-2.6-3.9-11.5,0.6-13.7,1.7c-3.7,1.9-7,3.7-9.2,5.7C118.9,99,127.9,97.2,132.1,97z"/>
		<path class="st6" d="M151.5,100.5c-0.5,1.4-1.5,2.3-1.7,4c2.3,0,4.6,0,6.9,0l-0.1-0.5l0.4-0.3c3,0.4,5.6-1.1,7.4-2.6
			c-0.8-0.3-1.7-0.4-2.3-0.9c3.6,0.6,6.9,0.3,8-2.3c-1.3-0.2-2.5-0.6-3.4-1.1c4.9,0.9,13.5,2.1,15.5-2.3c-5-2.6-11.5-8-17.8-8.6
			c-4.1-0.4-6,1.3-6,4.6C158.3,95.9,159.1,100.9,151.5,100.5z"/>
		<path class="st6" d="M150.1,95.9c1.7-0.1,2.5-1.2,2.9-2.6c-2.3,0.3-4.5,0.3-6.9,0c0.2,1.8,1.8,2.2,2.9,3.1
			c-1.1-0.3-0.9,0.6-1.4,0.9c-0.5,2.9,1.3,3.7,1.7,5.7c1.4-1.3,2.4-2.9,2.3-5.7C151.4,96.5,150.2,96.8,150.1,95.9z"/>
		<path class="st6" d="M121.9,98.9l0.1-0.4c-3-0.3-5.6-1.1-6.6-3.4c-8.6,3-18.6,4.7-28.6,6.3c1.7,2.9,4.9,4,8.6,4.3
			c9.4,0.7,19.8-3.8,26.6-6.3L121.9,98.9z"/>
		<path class="st6" d="M183,95c-0.3,2.9-3.5,2.8-6,3.4l0.1,0.4l-0.1,0.4c9,3.1,28.2,11.3,34.9,1.7C201.3,100.1,192.1,97.6,183,95z"
			/>
		<path class="st6" d="M125.2,98.5c-6.9,4.1-18.1,6.7-27.2,8c1.4,1.9,4.5,2.4,7.2,2.6c11.4,0.9,19.9-4.2,25.8-8.3
			C129.2,101,127.5,97.1,125.2,98.5z"/>
		<path class="st6" d="M179.3,101c-2.1-0.8-4.4-2.5-6-2.6c-2.2-0.2-3.5,1.4-5.2,2.6c7.2,4.9,19.9,11,31.2,6.3l-0.1-0.4l0.1-0.4
			C192.7,105.3,185.1,103.2,179.3,101z"/>
		<path class="st6" d="M131.8,101.6c-5.6,2.8-13.2,7.3-20.3,8.3c9,5.5,19.4-2.2,26.1-5.4C136.6,102.8,133.2,100.9,131.8,101.6z"/>
		<path class="st6" d="M138.2,104.8c-4.5,2.8-10.9,7-16.7,8.1c10.5,6.7,17.6-1.5,23-4.8C143.7,106.6,139.4,104.1,138.2,104.8z"/>
		<path class="st6" d="M167,101.6c-1.9-0.2-4.3,1-5.4,2.9c6.4,3.5,18.1,11.2,26.1,5.2c-5.6-0.8-11.6-3.2-16-5.4
			C169.9,103.3,168.3,101.7,167,101.6z"/>
		<path class="st6" d="M145.2,106.2c1.4,0.6,2.3,1.7,3.4,2.6c0.6-0.9,0.7-2.2,0.6-3.7C147.4,104.9,145.9,105.1,145.2,106.2z"/>
		<path class="st6" d="M149.5,105.3c0.2,1.4,0.2,3.1,1.1,3.7c0.7-1.3,2.2-1.8,3.1-2.9C153.2,105.2,151,104.5,149.5,105.3z"/>
		<path class="st6" d="M154.5,108.1c0.3,0.2,0.6,0.4,1,0.6c0.7-0.1,1.3-0.2,1.8-0.3c0.3-0.1,0.7-0.2,1-0.3c0.8-0.2,1.8-0.6,3.1-0.6
			c2.3,0,4.5,1.1,6.9,3.4c0.7,0.7,1.3,1.1,1.8,1.5c0.8,0.6,1.8,1.2,1.8,2.5c0,0.1,0,0.2,0,0.3c1.8-0.3,3.7-1.1,5.7-2.3
			c-5.8-1.1-12.2-5.3-16.7-8.1C159.6,104.1,155.3,106.6,154.5,108.1z"/>
		<path class="st6" d="M167,112.3c-4.7-4.5-7.1-2.5-9.4-2.1c-1.6,0.3-3.9,0.5-6.3,0.8v-1.2l-1.2,0.9l-2.2-1.3v2.1
			c-3.6,0.6-7,1.5-9.1,3.2c-4.1,3.4-4.7,11.2-0.6,14.9c3,2.7,6.5,4,9.7,5.9v10c-0.1,0.1-0.2,0.2-0.3,0.2c-3.9,2.8-8.2,7.3-6.9,12.5
			c0.9,3.9,3.7,5.5,7,7.1c0.1,0,0.2,0.1,0.2,0.1v9.9c-2.7,2.3-5,5-2.2,8.7c0.6,0.7,1.3,1.2,2.2,1.6V202c0,0.9,0.8,1.7,1.7,1.7
			c1,0,1.7-0.8,1.7-1.7v-7.5c1.4-1,2.6-2.4,2.4-4.3c-0.1-1.5-1.2-2.7-2.4-3.7v-11.1c2.4-1.7,4.7-3.5,4.7-5.9c0-2.8-2.4-3.9-4.7-5
			v-15.7c5.3-3.2,10.1-9.1,4.6-14.3c-1.3-1.2-3-2.1-4.6-2.9v-15.6c5.2,0.3,15.8,1.3,17.6,0C171.3,114.5,169.6,114.7,167,112.3z
			 M147.9,183.8c-2.3-2.3-1.7-4.1,0-5.7V183.8z M147.9,162.4c-4.1-3.3-4.6-8,0-11.5V162.4z M147.9,130.1c-2.8-1.3-5.5-3-6-6.3
			c-0.5-3.8,2.9-6.2,6-7.4V130.1z M152.7,189c1,2,0.1,3.8-1.3,5.1v-6.7C151.9,187.9,152.4,188.4,152.7,189z M151.4,172.3v-4.7
			C153.2,169.4,152.7,170.9,151.4,172.3z M151.4,142.5v-4.4C152.7,139.8,152.4,141.2,151.4,142.5z"/>
	</g>
	<g>
		<path class="st6" d="M276.9,154v6.7h-1V154h-1.4v-0.8h3.8v0.8H276.9z"/>
		<path class="st6" d="M284.1,160.7v-6.2h0l-1.7,6.2h-0.9l-1.6-6.2h0v6.2H279v-7.5h1.4l1.6,5.9h0l1.6-5.9h1.5v7.5H284.1z"/>
	</g>
</g>
</svg>
