<?xml version="1.0" encoding="utf-8"?>
<svg version="1.1" id="layer" x="0px" y="0px" viewBox="24.718 223.2 168.236 189.039" style="enable-background:new 0 0 652 652;" xmlns="http://www.w3.org/2000/svg">
  <style type="text/css">
	.st0{fill:#231815;}
	.st1{fill:#2E2624;}
	.st2{fill:#E5E5E6;}
	.st3{fill:#D2D2D3;}
	.st4{fill:#7D7D7D;}
	.st5{fill:#BEBFBF;}
	.st6{clip-path:url(#SVGID_2_);fill:url(#SVGID_3_);}
	.st7{clip-path:url(#SVGID_5_);fill:url(#SVGID_6_);}
</style>
  <g>
    <path class="st0" d="M94.2,383.4l0.8,0.1l-1.5,10.2l-1.1-0.2l1.3-9.1l-2,0.3l-0.1-1L94.2,383.4z M101.9,394.7 c-2.2-0.1-3.8-1.4-3.7-3.1c0.1-1.2,1-2,2.3-2.4c-0.9-0.5-1.7-1.3-1.6-2.5c0.1-1.6,1.8-2.6,3.7-2.5c1.9,0.1,3.4,1.3,3.3,2.9 c-0.1,1.2-0.9,1.9-1.9,2.3c1.2,0.5,2,1.4,2,2.6C105.8,393.7,104.1,394.8,101.9,394.7 M102.2,389.8c-1.5-0.1-2.7,0.6-2.8,1.8 c-0.1,1,0.9,2,2.6,2.1c1.7,0.1,2.7-0.7,2.8-1.8C104.8,390.7,103.7,389.9,102.2,389.8 M102.4,385.1c-1.3-0.1-2.4,0.6-2.4,1.6 c-0.1,1.1,0.9,2,2.2,2c1.3,0.1,2.4-0.6,2.5-1.8C104.7,386.1,103.8,385.2,102.4,385.1 M113.5,394.9c-2.2,0.1-3.9-1.1-3.9-2.8 c0-1.2,0.8-2.1,2-2.6c-1-0.4-1.8-1.1-1.8-2.3c0-1.6,1.6-2.8,3.4-2.8c1.9-0.1,3.5,1,3.6,2.6c0,1.2-0.8,2-1.7,2.4 c1.2,0.4,2.1,1.2,2.2,2.5C117.3,393.6,115.6,394.8,113.5,394.9 M113.3,390c-1.5,0-2.7,0.9-2.6,2c0,1,1.1,1.9,2.7,1.9 c1.7,0,2.6-1,2.6-2C116,390.7,114.8,389.9,113.3,390 M113.2,385.3c-1.3,0-2.3,0.8-2.3,1.9c0,1.1,1.1,1.9,2.4,1.8 c1.3,0,2.3-0.8,2.3-2C115.6,386,114.6,385.3,113.2,385.3 M125.5,383.4l0.8,6.9l1.6-0.2l0.1,1l-1.6,0.2l0.3,2.4l-1.1,0.1l-0.3-2.4 L120,392l-0.4-0.8l4.9-7.7L125.5,383.4z M124.6,385.2l-3.6,5.8l4.3-0.5L124.6,385.2z"/>
    <polygon class="st1" points="104.4,374.1 108.9,369.6 113.4,374.1 &#9;"/>
    <polygon class="st2" points="130.7,344.8 108.9,344.8 113.4,340.3 135.2,340.3 &#9;"/>
    <polygon class="st1" points="113.4,349.3 135.2,349.3 130.7,344.8 108.9,344.8 &#9;"/>
    <polygon class="st3" points="135.2,349.3 130.7,344.8 135.2,340.3 &#9;"/>
    <polygon class="st2" points="130.7,327.7 108.9,327.7 113.4,323.2 135.2,323.2 &#9;"/>
    <polygon class="st1" points="113.4,332.2 135.2,332.2 130.7,327.7 108.9,327.7 &#9;"/>
    <polygon class="st3" points="135.2,332.2 130.7,327.7 135.2,323.2 &#9;"/>
    <polygon class="st2" points="130.7,310.7 108.9,310.7 113.4,306.2 135.2,306.2 &#9;"/>
    <polygon class="st1" points="113.4,315.2 135.2,315.2 130.7,310.7 108.9,310.7 &#9;"/>
    <polygon class="st3" points="135.2,315.2 130.7,310.7 135.2,306.2 &#9;"/>
    <polygon class="st4" points="133.1,289.5 133.1,283.1 139.4,283.1 &#9;"/>
    <polygon class="st2" points="133.1,283.1 108.9,259 108.9,252.7 139.4,283.1 &#9;"/>
    <polygon class="st1" points="133.1,283.1 108.9,259 113.4,269.9 133.1,289.5 &#9;"/>
    <polygon class="st3" points="108.9,310.7 108.9,259 113.4,269.9 113.4,306.2 &#9;"/>
    <polygon class="st3" points="108.9,310.7 108.9,327.7 113.4,323.2 113.4,315.2 &#9;"/>
    <polygon class="st3" points="113.4,349.3 108.9,344.8 108.9,369.6 113.4,374.1 &#9;"/>
    <polygon class="st3" points="113.4,340.3 113.4,340.3 113.4,332.2 108.9,327.7 108.9,344.8 &#9;"/>
    <polygon class="st4" points="108.9,310.7 108.9,259 104.4,269.9 104.4,306.2 &#9;"/>
    <polygon class="st4" points="108.9,310.7 108.9,327.7 104.4,323.2 104.4,315.2 &#9;"/>
    <polygon class="st4" points="104.4,349.3 108.9,344.8 108.9,369.6 104.4,374.1 &#9;"/>
    <polygon class="st4" points="104.4,340.3 104.4,340.3 104.4,332.2 108.9,327.7 108.9,344.8 &#9;"/>
    <polygon class="st5" points="87.2,344.8 108.9,344.8 104.4,340.3 82.7,340.3 &#9;"/>
    <polygon class="st1" points="104.4,349.3 82.7,349.3 87.2,344.8 108.9,344.8 &#9;"/>
    <polygon class="st4" points="82.7,349.3 87.2,344.8 82.7,340.3 &#9;"/>
    <polygon class="st5" points="87.2,327.7 108.9,327.7 104.4,323.2 82.7,323.2 &#9;"/>
    <polygon class="st1" points="104.4,332.2 82.7,332.2 87.2,327.7 108.9,327.7 &#9;"/>
    <polygon class="st4" points="82.7,332.2 87.2,327.7 82.7,323.2 &#9;"/>
    <polygon class="st5" points="87.2,310.7 108.9,310.7 104.4,306.2 82.7,306.2 &#9;"/>
    <polygon class="st1" points="104.4,315.2 82.7,315.2 87.2,310.7 108.9,310.7 &#9;"/>
    <polygon class="st4" points="82.7,315.2 87.2,310.7 82.7,306.2 &#9;"/>
    <polygon class="st4" points="84.8,289.5 84.8,283.1 78.4,283.1 &#9;"/>
    <polygon class="st5" points="84.8,283.1 108.9,259 108.9,252.7 78.4,283.1 &#9;"/>
    <polygon class="st1" points="84.8,283.1 108.9,259 104.4,269.9 84.8,289.5 &#9;"/>
  </g>
  <g transform="matrix(1, 0, 0, 1, 0, -2)">
    <defs>
      <path id="SVGID_1_" d="M108.3,407.2C52.4,406.8,32.6,367.9,33,320c0.3-47.8,20.7-86.4,76.6-86c55.9,0.4,75.7,39.3,75.3,87.1 c-0.3,47.6-20.5,86-75.7,86C108.8,407.2,108.6,407.2,108.3,407.2 M109,229.5c-10.2,0-19.5,1.3-27.9,3.8 c-25.4,7.6-42.1,26.5-49,55.3c-2.2,9.4-3.4,19.9-3.5,31.4c-0.1,11.6,1,22.2,3.1,31.8c6.8,30.5,24.8,49.9,52.5,56.9 c7.4,1.9,15.5,2.8,24.3,2.9l0.9,0c8.8,0,16.9-0.9,24.3-2.8c27.7-6.9,45.7-26.4,52.8-57.1c2.1-9.2,3.2-19.4,3.3-30.6 c0.1-11.9-1-22.7-3.3-32.4c-6.7-29.1-23.7-48.1-49.8-55.6c-8.1-2.3-17.1-3.5-26.9-3.6H109z"/>
    </defs>
    <clipPath id="SVGID_2_">
      <path d="M108.3,407.2C52.4,406.8,32.6,367.9,33,320c0.3-47.8,20.7-86.4,76.6-86c55.9,0.4,75.7,39.3,75.3,87.1 c-0.3,47.6-20.5,86-75.7,86C108.8,407.2,108.6,407.2,108.3,407.2 M109,229.5c-10.2,0-19.5,1.3-27.9,3.8 c-25.4,7.6-42.1,26.5-49,55.3c-2.2,9.4-3.4,19.9-3.5,31.4c-0.1,11.6,1,22.2,3.1,31.8c6.8,30.5,24.8,49.9,52.5,56.9 c7.4,1.9,15.5,2.8,24.3,2.9l0.9,0c8.8,0,16.9-0.9,24.3-2.8c27.7-6.9,45.7-26.4,52.8-57.1c2.1-9.2,3.2-19.4,3.3-30.6 c0.1-11.9-1-22.7-3.3-32.4c-6.7-29.1-23.7-48.1-49.8-55.6c-8.1-2.3-17.1-3.5-26.9-3.6H109z" transform="matrix(1, 0, 0, 1, 0, 0)" style="overflow: visible;"/>
    </clipPath>
    <linearGradient id="SVGID_3_" gradientUnits="userSpaceOnUse" x1="184.9974" y1="655.2096" x2="188.8303" y2="655.2096" gradientTransform="matrix(16.3815 -45.0079 -45.0079 -16.3815 26536.8672 19466.5313)">
      <stop offset="0" style="stop-color:#2E2624"/>
      <stop offset="0.2615" style="stop-color:#9E9E9F"/>
      <stop offset="0.9097" style="stop-color:#DCDCDD"/>
      <stop offset="1" style="stop-color:#E5E5E6"/>
    </linearGradient>
    <polygon class="st6" points="-30,390.4 47.4,177.7 248.4,250.8 171,463.5 &#9;"/>
  </g>
  <g>
    <defs>
      <path id="SVGID_4_" d="M84,399.5c-25.7-7.3-38-26.4-43.3-47.7c-2.5-10.4-3.4-21.3-3.3-31.7c0.1-9.8,1-20,3.4-29.9 c5-20.8,16.5-39.6,40.2-47.6c7.8-2.6,16.9-4.1,27.5-4.1l0.8,0c10.2,0.1,19,1.5,26.5,3.9c24.2,7.9,35.9,26.6,40.9,47.4 c2.5,10.3,3.3,21,3.2,31.2c-0.1,10.1-1,20.7-3.6,30.8c-5.4,21.4-17.8,40.6-43.5,47.8c-7,1.9-14.9,3-23.9,3h-0.8 C99,402.6,91,401.5,84,399.5 M79.8,238.3c-23.2,7.8-36.5,25.6-42.7,48.4C34.3,297,33,308.2,33,320c-0.1,11.9,1.1,23.2,3.7,33.6 c6.2,24.2,20.6,42.9,46.2,50.2c7.5,2.1,15.9,3.3,25.4,3.4c9.8,0.1,18.5-1.1,26.1-3.2c25.7-7.2,40.1-26,46.5-50.3 c2.6-10,3.9-21,3.9-32.5c0.1-12.1-1.1-23.6-3.9-34.1c-6.1-23.1-19.7-41.1-43.5-48.8c-8.1-2.6-17.4-4.1-27.9-4.1 c-0.3,0-0.6,0-0.9,0C97.7,234,88.1,235.5,79.8,238.3"/>
    </defs>
    <clipPath id="SVGID_5_">
      <path d="M84,399.5c-25.7-7.3-38-26.4-43.3-47.7c-2.5-10.4-3.4-21.3-3.3-31.7c0.1-9.8,1-20,3.4-29.9 c5-20.8,16.5-39.6,40.2-47.6c7.8-2.6,16.9-4.1,27.5-4.1l0.8,0c10.2,0.1,19,1.5,26.5,3.9c24.2,7.9,35.9,26.6,40.9,47.4 c2.5,10.3,3.3,21,3.2,31.2c-0.1,10.1-1,20.7-3.6,30.8c-5.4,21.4-17.8,40.6-43.5,47.8c-7,1.9-14.9,3-23.9,3h-0.8 C99,402.6,91,401.5,84,399.5 M79.8,238.3c-23.2,7.8-36.5,25.6-42.7,48.4C34.3,297,33,308.2,33,320c-0.1,11.9,1.1,23.2,3.7,33.6 c6.2,24.2,20.6,42.9,46.2,50.2c7.5,2.1,15.9,3.3,25.4,3.4c9.8,0.1,18.5-1.1,26.1-3.2c25.7-7.2,40.1-26,46.5-50.3 c2.6-10,3.9-21,3.9-32.5c0.1-12.1-1.1-23.6-3.9-34.1c-6.1-23.1-19.7-41.1-43.5-48.8c-8.1-2.6-17.4-4.1-27.9-4.1 c-0.3,0-0.6,0-0.9,0C97.7,234,88.1,235.5,79.8,238.3" transform="matrix(1, 0, 0, 1, 0, 0)" style="overflow: visible;"/>
    </clipPath>
    <linearGradient id="SVGID_6_" gradientUnits="userSpaceOnUse" x1="185.2253" y1="655.4844" x2="189.0581" y2="655.4844" gradientTransform="matrix(15.5729 -42.7863 -42.7863 -15.5729 25240.3398 18535.5117)">
      <stop offset="0" style="stop-color:#D2D2D3"/>
      <stop offset="0.178" style="stop-color:#D2D2D3"/>
      <stop offset="0.4379" style="stop-color:#B1B1B1"/>
      <stop offset="0.7956" style="stop-color:#7D7D7D"/>
      <stop offset="0.7977" style="stop-color:#7C7C7C"/>
      <stop offset="0.935" style="stop-color:#443E3D"/>
      <stop offset="1" style="stop-color:#2E2624"/>
    </linearGradient>
    <polygon class="st7" points="-22.8,387 50.7,185.1 240.6,254.3 167.1,456.1 &#9;"/>
  </g>
</svg>