<?xml version="1.0" encoding="utf-8"?>
<!-- Generator: Adobe Illustrator 19.2.1, SVG Export Plug-In . SVG Version: 6.00 Build 0)  -->
<svg version="1.1" id="layer" xmlns="http://www.w3.org/2000/svg" xmlns:xlink="http://www.w3.org/1999/xlink" x="0px" y="0px"
	 viewBox="0 0 652 652" style="enable-background:new 0 0 652 652;" xml:space="preserve">
<style type="text/css">
	.st0{fill:#231815;}
	.st1{fill:#2E2624;}
	.st2{fill:#E5E5E6;}
	.st3{fill:#D2D2D3;}
	.st4{fill:#7D7D7D;}
	.st5{fill:#BEBFBF;}
	.st6{clip-path:url(#SVGID_2_);fill:url(#SVGID_3_);}
	.st7{clip-path:url(#SVGID_5_);fill:url(#SVGID_6_);}
</style>
<g>
	<path class="st0" d="M213,312.2c3.5-0.6,4-1.5,4-5.1v-15.2c0-1.4-0.7-2.2-4-2.3v-1.7h9.3l7.1,19.7h0.3l7.1-19.7h9.3v1.7
		c-3.3,0.1-4.1,0.5-4.1,1.7v19c0,1.2,0.8,1.6,4.1,1.7v1.7h-11.5v-1.7c3.1-0.1,3.4-0.4,3.4-1.7v-19.2h-0.3l-8.4,22.5h-1.6l-8.5-22.5
		h-0.3V307c0,3.6,0.3,4.5,3.7,5.1v1.4H213V312.2z M251.1,304.5c0,4.1,2,7.2,5.8,7.2c2.2,0,4-1.3,5.6-3.3l1,1
		c-1.4,2.4-3.7,4.5-7.7,4.5c-5.5,0-8.5-4-8.5-9.1c0-5.4,3.4-9.5,8.5-9.5c5.6,0,7.6,4.5,7.3,9h-12V304.5z M259.3,302.8
		c0.2-3.3-1.1-5.8-3.8-5.8c-2.4,0-4,1.7-4.4,6L259.3,302.8z M288.8,295.4c2.7,0,4.4,1.9,4.4,5.4v9.7c0,0.9,0.6,1.3,2.9,1.4v1.6h-8.7
		V312c2,0,2.3-0.4,2.3-1.4v-8.3c0-3.2-1.1-4.2-3.4-4.2c-1.4,0-2.7,0.7-4.3,1.8c0,0.4,0.1,0.7,0.1,1.2v9.5c0,0.9,0.4,1.3,2.6,1.4v1.6
		h-8.4V312c2,0,2.3-0.4,2.3-1.4v-8.3c0-3.2-1.3-4.2-3.5-4.2c-1.8,0-2.9,0.7-4,1.4v11c0,0.9,0.3,1.3,2.2,1.4v1.6h-8.6V312
		c2.3,0,2.9-0.4,2.9-1.4v-11.3c0-1.2-0.6-1.9-2.9-1.9v-1.6l6.3-0.2v2.7c2.1-1.4,4-2.8,6.6-2.8c2,0,3.6,1.2,4.2,3.3
		C284.1,296.7,286.4,295.4,288.8,295.4 M296.8,304.8c0-5.4,3.5-9.4,8.9-9.4c5.5,0,8.9,3.8,8.9,9.2c0,5.5-3.5,9.4-8.9,9.4
		C300.1,314,296.8,310.3,296.8,304.8 M310.7,304.7c0-5.2-2-7.6-5.1-7.6c-3.1,0-4.8,2.4-4.8,7.6c0,5.3,2,7.6,5.1,7.6
		C308.9,312.4,310.7,310,310.7,304.7 M315.9,312c2.3,0,2.9-0.4,2.9-1.4v-11.3c0-1.2-0.6-1.9-2.9-1.9v-1.6l6.3-0.2v3.1
		c1.4-1.7,3.1-3.2,5.1-3.2c2,0,3,1.4,3,2.9c0,1.2-0.9,2.3-2.1,2.3c-1.2,0-2.2-0.7-2.2-2.1c0-0.2,0-0.4,0.1-0.7
		c-1.8-0.1-2.9,1.1-3.7,2.1v10.5c0,0.9,0.7,1.3,3.3,1.4v1.6h-9.7V312z M331.7,312c2.3,0,2.9-0.4,2.9-1.4v-11.3
		c0-1.2-0.6-1.9-2.8-1.9v-1.6l6.3-0.2v15c0,0.9,0.5,1.3,2.9,1.4v1.6h-9.2V312z M333.9,288.9c0-1.5,0.9-2.5,2.3-2.5
		c1.4,0,2.3,1,2.3,2.4c0,1.4-0.9,2.4-2.3,2.4C334.8,291.3,333.9,290.4,333.9,288.9 M342.5,309.7c0-1.6,0.7-3.2,2.4-4.1
		c3-1.6,7.6-2.3,8.2-2.8v-1.1c0-3.5-1-4.7-3.5-4.7c-1.3,0-2,0.3-2.6,0.9c0.3,0.7,0.4,1.3,0.4,1.8c0,1.2-0.8,2.2-2.1,2.2
		c-1.4,0-2.2-1-2.2-2.2c0-2.6,3.2-4.3,7-4.3c4.1,0,6.5,1.8,6.5,5.6v8.5c0,1.9,0.3,2.5,2.9,2.2l0.2,1.3c-1.4,0.5-2.3,0.7-3.4,0.7
		c-2.1,0-2.7-0.8-2.9-3h-0.3c-1.6,1.8-3.4,3.1-5.8,3.1C344.1,313.8,342.5,312,342.5,309.7 M353.1,309.1v-4.7
		c-5.6,1.3-6.7,2.1-6.7,4.4c0,1.4,0.7,2.7,2.8,2.7C350.8,311.5,352.2,310.3,353.1,309.1 M360.8,312c2.3,0,2.9-0.4,2.9-1.4V290
		c0-1.2-0.7-1.9-3-1.9v-1.6l6.5-0.2v24.3c0,0.9,0.6,1.3,2.9,1.4v1.6h-9.3V312z M378.8,306h1.5c2.1,4.5,4.7,6.3,8,6.3
		c3.6,0,5.1-2.3,5.1-4.3c0-2.7-1.8-3.9-6.6-5.6c-3.6-1.2-7.5-2.4-7.5-7.2c0-4.9,4-7.9,8.8-7.9c2.2,0,3.6,0.5,4.8,1l1.3-1.2h1.1v7.6
		h-1.5c-1.3-3.6-3.4-5.4-6.4-5.4c-2.5,0-4.5,1.6-4.5,4.2c0,2.5,2,3.6,6.2,5.1c3.6,1.2,7.4,2.5,7.4,7.3c0,3.9-2.4,8.5-8.9,8.5
		c-2.1,0-4.1-0.6-5.6-1.2l-2.1,1.3h-1.2V306z M397.9,312c2.3,0,2.9-0.4,2.9-1.4V290c0-1.2-0.7-1.9-3-1.9v-1.6l6.5-0.2v24.3
		c0,0.9,0.6,1.3,2.9,1.4v1.6h-9.3V312z M408,304.8c0-5.4,3.5-9.4,8.9-9.4c5.5,0,8.9,3.8,8.9,9.2c0,5.5-3.5,9.4-8.9,9.4
		C411.2,314,408,310.3,408,304.8 M421.8,304.7c0-5.2-2-7.6-5.1-7.6c-3.1,0-4.8,2.4-4.8,7.6c0,5.3,2,7.6,5.1,7.6
		C420.1,312.4,421.8,310,421.8,304.7 M427.6,309.7c0-1.6,0.7-3.2,2.4-4.1c3-1.6,7.6-2.3,8.2-2.8v-1.1c0-3.5-1-4.7-3.5-4.7
		c-1.3,0-2,0.3-2.6,0.9c0.3,0.7,0.4,1.3,0.4,1.8c0,1.2-0.7,2.2-2.1,2.2c-1.4,0-2.2-1-2.2-2.2c0-2.6,3.2-4.3,7-4.3
		c4.1,0,6.5,1.8,6.5,5.6v8.5c0,1.9,0.3,2.5,2.9,2.2l0.2,1.3c-1.4,0.5-2.3,0.7-3.4,0.7c-2.1,0-2.7-0.8-2.9-3h-0.3
		c-1.6,1.8-3.4,3.1-5.8,3.1C429.2,313.8,427.6,312,427.6,309.7 M438.3,309.1v-4.7c-5.6,1.3-6.7,2.1-6.7,4.4c0,1.4,0.7,2.7,2.8,2.7
		C435.9,311.5,437.4,310.3,438.3,309.1 M446.1,312c2.3,0,2.9-0.4,2.9-1.4v-11.3c0-1.2-0.6-1.9-2.9-1.9v-1.6l6.3-0.2v2.7
		c2.1-1.4,4.4-2.8,7-2.8c2.7,0,4.5,1.9,4.5,5.4v9.7c0,0.9,0.5,1.3,2.9,1.4v1.6h-8.9V312c2,0,2.5-0.4,2.5-1.4v-8.3
		c0-3.3-1.2-4.2-3.5-4.2c-1.8,0-3.3,0.7-4.4,1.4v11c0,0.9,0.5,1.3,2.5,1.4v1.6h-8.9V312z M482.1,310.2c0,1.3,0.2,1.6,3.3,1.7v1.7
		h-11.3v-1.7c3.3-0.1,4.1-0.5,4.1-1.7v-19c0-1.2-0.8-1.6-4.1-1.7v-1.7h11.8v1.7c-3.5,0.1-3.7,0.4-3.7,1.7v10l8.4-8.5
		c2-2,1.8-3-1.2-3.4v-1.5h10.1v1.5c-2.9,0.4-4.1,1.2-6.9,3.9l-5.2,5.1l7.6,10.3c1.5,2,2.1,2.9,5.3,3.4v1.6h-11.4V312
		c2.8-0.4,3.4-1,2-2.8l-6.1-8.5l-2.7,2.7V310.2z M504.8,304.5c0,4.1,2,7.2,5.8,7.2c2.2,0,4-1.3,5.6-3.3l1,1
		c-1.4,2.4-3.7,4.5-7.7,4.5c-5.5,0-8.5-4-8.5-9.1c0-5.4,3.4-9.5,8.5-9.5c5.6,0,7.6,4.5,7.3,9h-12V304.5z M513.1,302.8
		c0.2-3.3-1.1-5.8-3.8-5.8c-2.4,0-4,1.7-4.4,6L513.1,302.8z M521,309.1v-11.5h-3.2v-1.3l3.3-0.7v-5.1l3.4-1.4v6.5h5.6v1.9h-5.6v11.1
		c0,2.2,0.7,3.1,2.3,3.1c1.1,0,1.9-0.8,2.8-2.1l1.1,0.8c-1.4,2.6-2.7,3.5-5.2,3.5C522.5,314,521,312.2,521,309.1 M534.7,309.1v-11.5
		h-3.2v-1.3l3.3-0.7v-5.1l3.4-1.4v6.5h5.6v1.9h-5.6v11.1c0,2.2,0.7,3.1,2.3,3.1c1.1,0,1.9-0.8,2.8-2.1l1.1,0.8
		c-1.4,2.6-2.7,3.5-5.2,3.5C536.2,314,534.7,312.2,534.7,309.1 M549.2,304.5c0,4.1,2,7.2,5.8,7.2c2.2,0,4-1.3,5.6-3.3l1,1
		c-1.5,2.4-3.7,4.5-7.7,4.5c-5.5,0-8.5-4-8.5-9.1c0-5.4,3.4-9.5,8.5-9.5c5.6,0,7.6,4.5,7.3,9h-12V304.5z M557.4,302.8
		c0.2-3.3-1.1-5.8-3.8-5.8c-2.4,0-4,1.7-4.4,6L557.4,302.8z M562.8,312c2.3,0,2.9-0.4,2.9-1.4v-11.3c0-1.2-0.6-1.9-2.9-1.9v-1.6
		l6.3-0.2v3.1c1.4-1.7,3.1-3.2,5.1-3.2c2,0,3,1.4,3,2.9c0,1.2-0.9,2.3-2.1,2.3c-1.2,0-2.2-0.7-2.2-2.1c0-0.2,0-0.4,0.1-0.7
		c-1.8-0.1-2.9,1.1-3.7,2.1v10.5c0,0.9,0.7,1.3,3.3,1.4v1.6h-9.7V312z M578.6,312c2.3,0,2.9-0.4,2.9-1.4v-11.3
		c0-1.2-0.5-1.9-2.8-1.9v-1.6l6.3-0.2v15c0,0.9,0.5,1.3,2.9,1.4v1.6h-9.2V312z M580.8,288.9c0-1.5,0.9-2.5,2.3-2.5
		c1.4,0,2.4,1,2.4,2.4c0,1.4-0.9,2.4-2.4,2.4C581.7,291.3,580.8,290.4,580.8,288.9 M589.5,312c2.3,0,2.9-0.4,2.9-1.4v-11.3
		c0-1.2-0.6-1.9-2.9-1.9v-1.6l6.3-0.2v2.7c2.1-1.4,4.4-2.8,7-2.8c2.7,0,4.5,1.9,4.5,5.4v9.7c0,0.9,0.5,1.3,2.9,1.4v1.6h-8.9V312
		c2,0,2.5-0.4,2.5-1.4v-8.3c0-3.3-1.2-4.2-3.5-4.2c-1.8,0-3.3,0.7-4.4,1.4v11c0,0.9,0.5,1.3,2.5,1.4v1.6h-8.9V312z M626.4,292.9
		c1.4,0,2.2,0.8,2.2,2c0,1-0.6,1.7-1.5,1.7c-1,0-1.7-0.7-1.7-1.8c-0.8,0.3-1.8,1-2.3,1.7c1.7,1,2.8,2.7,2.8,4.9
		c0,3.8-3.1,6.2-7.1,6.2c-0.8,0-1.6-0.1-2.4-0.3c-1,0.5-1.6,1.1-1.6,1.7c0,0.8,0.5,1.6,3.7,1.6h1.8c5.2,0,7.5,1.3,7.5,4.5
		c0,3.1-3.2,6.5-9.5,6.5c-5.1,0-7.9-2-7.9-4.3c0-1.8,1.7-3.4,4.8-4v-0.3c-2.3-0.5-3.1-1.5-3.1-3.1c0-1.2,1.1-2.3,2.7-3.2
		c-1.9-0.9-3.2-2.6-3.2-5.2c0-3.8,3.1-6.2,7.1-6.2c1.1,0,2.2,0.2,3.1,0.5C622.8,294.4,624.4,292.9,626.4,292.9 M625,316.5
		c0-1.6-0.9-2.7-4.8-2.7H617c-2.1,0.4-3.4,1.5-3.4,3.1c0,1.9,2,3.1,5.9,3.1C622.8,320,625,318.4,625,316.5 M622.2,301.5
		c0-3-1.5-4.7-3.5-4.7c-2,0-3.3,1.1-3.3,4.7c0,3.6,1.6,4.6,3.6,4.6C620.9,306.2,622.2,304.9,622.2,301.5 M213.2,341.8
		c0-7.9,5.9-13.8,13.3-13.8c2.7,0,4.7,0.9,6.2,1.8l1.2-1.6h1.4v8.9H234c-1.7-4.4-4.1-7-7.9-7c-4.5,0-8.5,4.1-8.5,11.7
		c0,7.2,4.5,10.9,9.2,10.9c4.4,0,6.5-2.4,8.1-5.7l1.6,0.8c-1.6,3.7-5,7.4-10.7,7.4C218.4,355,213.2,349.7,213.2,341.8 M238.3,350.5
		c0-1.6,0.7-3.2,2.4-4.1c3-1.6,7.6-2.3,8.2-2.8v-1.1c0-3.5-1-4.7-3.5-4.7c-1.3,0-2,0.3-2.6,0.9c0.3,0.7,0.4,1.3,0.4,1.8
		c0,1.2-0.7,2.2-2.1,2.2c-1.4,0-2.2-1-2.2-2.2c0-2.6,3.2-4.3,7-4.3c4.1,0,6.5,1.8,6.5,5.6v8.5c0,1.9,0.3,2.5,2.9,2.2l0.2,1.3
		c-1.4,0.5-2.3,0.7-3.4,0.7c-2.1,0-2.7-0.8-2.9-3H249c-1.6,1.8-3.4,3.1-5.8,3.1C239.9,354.6,238.3,352.7,238.3,350.5 M249,349.9
		v-4.7c-5.6,1.3-6.7,2.1-6.7,4.4c0,1.4,0.7,2.7,2.8,2.7C246.6,352.2,248.1,351.1,249,349.9 M256.8,352.7c2.3,0,2.9-0.4,2.9-1.4V340
		c0-1.2-0.6-1.9-2.9-1.9v-1.6l6.3-0.2v2.7c2.1-1.4,4.4-2.8,7-2.8c2.7,0,4.5,1.9,4.5,5.4v9.7c0,0.9,0.5,1.3,2.9,1.4v1.6h-8.9v-1.6
		c2,0,2.5-0.4,2.5-1.4V343c0-3.3-1.2-4.2-3.5-4.2c-1.8,0-3.3,0.7-4.4,1.4v11c0,0.9,0.5,1.3,2.5,1.4v1.6h-8.9V352.7z M278.2,345.7
		c0-5.4,3.9-9.5,8.8-9.5c4.1,0,6.5,2.2,6.5,4.4c0,1.5-0.9,2.6-2.2,2.6c-1.3,0-2.2-0.8-2.2-2c0-1.1,0.7-1.8,1.3-2.1
		c-0.5-0.6-1.7-1.3-3.2-1.3c-2.9,0-5.1,2-5.1,6.9c0,4.7,2.1,7.6,5.9,7.6c2.2,0,3.9-1.2,5.2-2.7l1,1c-1.6,2.4-3.7,4.1-7.4,4.1
		C281.4,354.8,278.2,350.9,278.2,345.7 M299,345.3c0,4.1,2,7.3,5.8,7.3c2.2,0,4-1.3,5.6-3.3l1,1c-1.4,2.4-3.7,4.5-7.7,4.5
		c-5.5,0-8.5-4-8.5-9.1c0-5.4,3.4-9.5,8.5-9.5c5.6,0,7.6,4.5,7.3,9h-12V345.3z M307.2,343.6c0.2-3.3-1.1-5.8-3.8-5.8
		c-2.4,0-4,1.7-4.4,6L307.2,343.6z M312.6,352.7c2.3,0,2.9-0.4,2.9-1.4V340c0-1.2-0.6-1.9-2.9-1.9v-1.6l6.3-0.2v3.1
		c1.4-1.7,3.1-3.2,5.1-3.2c2,0,3,1.4,3,2.9c0,1.2-0.9,2.3-2.1,2.3c-1.2,0-2.2-0.7-2.2-2.1c0-0.2,0-0.4,0.1-0.7
		c-1.8-0.1-2.9,1.1-3.7,2.1v10.5c0,0.9,0.7,1.3,3.3,1.4v1.6h-9.7V352.7z M334.5,341.8c0-7.9,5.9-13.8,13.3-13.8
		c2.7,0,4.7,0.9,6.2,1.8l1.2-1.6h1.5v8.9h-1.3c-1.7-4.4-4.1-7-7.9-7c-4.5,0-8.5,4.1-8.5,11.7c0,7.2,4.5,10.9,9.2,10.9
		c4.4,0,6.5-2.4,8.1-5.7l1.6,0.8c-1.6,3.7-5,7.4-10.7,7.4C339.8,355,334.5,349.7,334.5,341.8 M363.7,345.3c0,4.1,2,7.3,5.8,7.3
		c2.2,0,4-1.3,5.6-3.3l1,1c-1.5,2.4-3.7,4.5-7.7,4.5c-5.5,0-8.5-4-8.5-9.1c0-5.4,3.4-9.5,8.5-9.5c5.6,0,7.6,4.5,7.3,9h-12V345.3z
		 M371.9,343.6c0.2-3.3-1.1-5.8-3.8-5.8c-2.4,0-4,1.7-4.4,6L371.9,343.6z M377.3,352.7c2.3,0,2.9-0.4,2.9-1.4V340
		c0-1.2-0.6-1.9-2.9-1.9v-1.6l6.3-0.2v2.7c2.1-1.4,4.4-2.8,7-2.8c2.7,0,4.5,1.9,4.5,5.4v9.7c0,0.9,0.6,1.3,2.9,1.4v1.6h-8.9v-1.6
		c2,0,2.5-0.4,2.5-1.4V343c0-3.3-1.2-4.2-3.5-4.2c-1.8,0-3.3,0.7-4.4,1.4v11c0,0.9,0.5,1.3,2.5,1.4v1.6h-8.9V352.7z M400.8,349.9
		v-11.5h-3.2v-1.3l3.3-0.7v-5.1l3.4-1.4v6.5h5.6v1.9h-5.6v11.1c0,2.2,0.7,3.1,2.3,3.1c1.1,0,1.9-0.8,2.8-2.1l1.1,0.8
		c-1.5,2.6-2.7,3.5-5.3,3.5C402.3,354.8,400.8,353,400.8,349.9 M415.2,345.3c0,4.1,2,7.3,5.8,7.3c2.2,0,4-1.3,5.6-3.3l1,1
		c-1.4,2.4-3.7,4.5-7.7,4.5c-5.5,0-8.5-4-8.5-9.1c0-5.4,3.4-9.5,8.5-9.5c5.6,0,7.6,4.5,7.3,9h-12V345.3z M423.5,343.6
		c0.2-3.3-1.1-5.8-3.8-5.8c-2.4,0-4,1.7-4.4,6L423.5,343.6z M428.8,352.7c2.3,0,2.9-0.4,2.9-1.4V340c0-1.2-0.6-1.9-2.9-1.9v-1.6
		l6.3-0.2v3.1c1.4-1.7,3.1-3.2,5.1-3.2c2,0,3,1.4,3,2.9c0,1.2-0.9,2.3-2.1,2.3c-1.2,0-2.2-0.7-2.2-2.1c0-0.2,0-0.4,0.1-0.7
		c-1.8-0.1-2.9,1.1-3.7,2.1v10.5c0,0.9,0.7,1.3,3.3,1.4v1.6h-9.7V352.7z"/>
	<path class="st0" d="M94.2,383.4l0.8,0.1l-1.5,10.2l-1.1-0.2l1.3-9.1l-2,0.3l-0.1-1L94.2,383.4z M101.9,394.7
		c-2.2-0.1-3.8-1.4-3.7-3.1c0.1-1.2,1-2,2.3-2.4c-0.9-0.5-1.7-1.3-1.6-2.5c0.1-1.6,1.8-2.6,3.7-2.5c1.9,0.1,3.4,1.3,3.3,2.9
		c-0.1,1.2-0.9,1.9-1.9,2.3c1.2,0.5,2,1.4,2,2.6C105.8,393.7,104.1,394.8,101.9,394.7 M102.2,389.8c-1.5-0.1-2.7,0.6-2.8,1.8
		c-0.1,1,0.9,2,2.6,2.1c1.7,0.1,2.7-0.7,2.8-1.8C104.8,390.7,103.7,389.9,102.2,389.8 M102.4,385.1c-1.3-0.1-2.4,0.6-2.4,1.6
		c-0.1,1.1,0.9,2,2.2,2c1.3,0.1,2.4-0.6,2.5-1.8C104.7,386.1,103.8,385.2,102.4,385.1 M113.5,394.9c-2.2,0.1-3.9-1.1-3.9-2.8
		c0-1.2,0.8-2.1,2-2.6c-1-0.4-1.8-1.1-1.8-2.3c0-1.6,1.6-2.8,3.4-2.8c1.9-0.1,3.5,1,3.6,2.6c0,1.2-0.8,2-1.7,2.4
		c1.2,0.4,2.1,1.2,2.2,2.5C117.3,393.6,115.6,394.8,113.5,394.9 M113.3,390c-1.5,0-2.7,0.9-2.6,2c0,1,1.1,1.9,2.7,1.9
		c1.7,0,2.6-1,2.6-2C116,390.7,114.8,389.9,113.3,390 M113.2,385.3c-1.3,0-2.3,0.8-2.3,1.9c0,1.1,1.1,1.9,2.4,1.8
		c1.3,0,2.3-0.8,2.3-2C115.6,386,114.6,385.3,113.2,385.3 M125.5,383.4l0.8,6.9l1.6-0.2l0.1,1l-1.6,0.2l0.3,2.4l-1.1,0.1l-0.3-2.4
		L120,392l-0.4-0.8l4.9-7.7L125.5,383.4z M124.6,385.2l-3.6,5.8l4.3-0.5L124.6,385.2z"/>
	<polygon class="st1" points="104.4,374.1 108.9,369.6 113.4,374.1 	"/>
	<polygon class="st2" points="130.7,344.8 108.9,344.8 113.4,340.3 135.2,340.3 	"/>
	<polygon class="st1" points="113.4,349.3 135.2,349.3 130.7,344.8 108.9,344.8 	"/>
	<polygon class="st3" points="135.2,349.3 130.7,344.8 135.2,340.3 	"/>
	<polygon class="st2" points="130.7,327.7 108.9,327.7 113.4,323.2 135.2,323.2 	"/>
	<polygon class="st1" points="113.4,332.2 135.2,332.2 130.7,327.7 108.9,327.7 	"/>
	<polygon class="st3" points="135.2,332.2 130.7,327.7 135.2,323.2 	"/>
	<polygon class="st2" points="130.7,310.7 108.9,310.7 113.4,306.2 135.2,306.2 	"/>
	<polygon class="st1" points="113.4,315.2 135.2,315.2 130.7,310.7 108.9,310.7 	"/>
	<polygon class="st3" points="135.2,315.2 130.7,310.7 135.2,306.2 	"/>
	<polygon class="st4" points="133.1,289.5 133.1,283.1 139.4,283.1 	"/>
	<polygon class="st2" points="133.1,283.1 108.9,259 108.9,252.7 139.4,283.1 	"/>
	<polygon class="st1" points="133.1,283.1 108.9,259 113.4,269.9 133.1,289.5 	"/>
	<polygon class="st3" points="108.9,310.7 108.9,259 113.4,269.9 113.4,306.2 	"/>
	<polygon class="st3" points="108.9,310.7 108.9,327.7 113.4,323.2 113.4,315.2 	"/>
	<polygon class="st3" points="113.4,349.3 108.9,344.8 108.9,369.6 113.4,374.1 	"/>
	<polygon class="st3" points="113.4,340.3 113.4,340.3 113.4,332.2 108.9,327.7 108.9,344.8 	"/>
	<polygon class="st4" points="108.9,310.7 108.9,259 104.4,269.9 104.4,306.2 	"/>
	<polygon class="st4" points="108.9,310.7 108.9,327.7 104.4,323.2 104.4,315.2 	"/>
	<polygon class="st4" points="104.4,349.3 108.9,344.8 108.9,369.6 104.4,374.1 	"/>
	<polygon class="st4" points="104.4,340.3 104.4,340.3 104.4,332.2 108.9,327.7 108.9,344.8 	"/>
	<polygon class="st5" points="87.2,344.8 108.9,344.8 104.4,340.3 82.7,340.3 	"/>
	<polygon class="st1" points="104.4,349.3 82.7,349.3 87.2,344.8 108.9,344.8 	"/>
	<polygon class="st4" points="82.7,349.3 87.2,344.8 82.7,340.3 	"/>
	<polygon class="st5" points="87.2,327.7 108.9,327.7 104.4,323.2 82.7,323.2 	"/>
	<polygon class="st1" points="104.4,332.2 82.7,332.2 87.2,327.7 108.9,327.7 	"/>
	<polygon class="st4" points="82.7,332.2 87.2,327.7 82.7,323.2 	"/>
	<polygon class="st5" points="87.2,310.7 108.9,310.7 104.4,306.2 82.7,306.2 	"/>
	<polygon class="st1" points="104.4,315.2 82.7,315.2 87.2,310.7 108.9,310.7 	"/>
	<polygon class="st4" points="82.7,315.2 87.2,310.7 82.7,306.2 	"/>
	<polygon class="st4" points="84.8,289.5 84.8,283.1 78.4,283.1 	"/>
	<polygon class="st5" points="84.8,283.1 108.9,259 108.9,252.7 78.4,283.1 	"/>
	<polygon class="st1" points="84.8,283.1 108.9,259 104.4,269.9 84.8,289.5 	"/>
</g>
<g>
	<defs>
		<path id="SVGID_1_" d="M108.3,407.2C52.4,406.8,32.6,367.9,33,320c0.3-47.8,20.7-86.4,76.6-86c55.9,0.4,75.7,39.3,75.3,87.1
			c-0.3,47.6-20.5,86-75.7,86C108.8,407.2,108.6,407.2,108.3,407.2 M109,229.5c-10.2,0-19.5,1.3-27.9,3.8
			c-25.4,7.6-42.1,26.5-49,55.3c-2.2,9.4-3.4,19.9-3.5,31.4c-0.1,11.6,1,22.2,3.1,31.8c6.8,30.5,24.8,49.9,52.5,56.9
			c7.4,1.9,15.5,2.8,24.3,2.9l0.9,0c8.8,0,16.9-0.9,24.3-2.8c27.7-6.9,45.7-26.4,52.8-57.1c2.1-9.2,3.2-19.4,3.3-30.6
			c0.1-11.9-1-22.7-3.3-32.4c-6.7-29.1-23.7-48.1-49.8-55.6c-8.1-2.3-17.1-3.5-26.9-3.6H109z"/>
	</defs>
	<clipPath id="SVGID_2_">
		<use xlink:href="#SVGID_1_"  style="overflow:visible;"/>
	</clipPath>
	
		<linearGradient id="SVGID_3_" gradientUnits="userSpaceOnUse" x1="184.9974" y1="655.2096" x2="188.8303" y2="655.2096" gradientTransform="matrix(16.3815 -45.0079 -45.0079 -16.3815 26536.8672 19466.5313)">
		<stop  offset="0" style="stop-color:#2E2624"/>
		<stop  offset="0.2615" style="stop-color:#9E9E9F"/>
		<stop  offset="0.9097" style="stop-color:#DCDCDD"/>
		<stop  offset="1" style="stop-color:#E5E5E6"/>
	</linearGradient>
	<polygon class="st6" points="-30,390.4 47.4,177.7 248.4,250.8 171,463.5 	"/>
</g>
<g>
	<defs>
		<path id="SVGID_4_" d="M84,399.5c-25.7-7.3-38-26.4-43.3-47.7c-2.5-10.4-3.4-21.3-3.3-31.7c0.1-9.8,1-20,3.4-29.9
			c5-20.8,16.5-39.6,40.2-47.6c7.8-2.6,16.9-4.1,27.5-4.1l0.8,0c10.2,0.1,19,1.5,26.5,3.9c24.2,7.9,35.9,26.6,40.9,47.4
			c2.5,10.3,3.3,21,3.2,31.2c-0.1,10.1-1,20.7-3.6,30.8c-5.4,21.4-17.8,40.6-43.5,47.8c-7,1.9-14.9,3-23.9,3h-0.8
			C99,402.6,91,401.5,84,399.5 M79.8,238.3c-23.2,7.8-36.5,25.6-42.7,48.4C34.3,297,33,308.2,33,320c-0.1,11.9,1.1,23.2,3.7,33.6
			c6.2,24.2,20.6,42.9,46.2,50.2c7.5,2.1,15.9,3.3,25.4,3.4c9.8,0.1,18.5-1.1,26.1-3.2c25.7-7.2,40.1-26,46.5-50.3
			c2.6-10,3.9-21,3.9-32.5c0.1-12.1-1.1-23.6-3.9-34.1c-6.1-23.1-19.7-41.1-43.5-48.8c-8.1-2.6-17.4-4.1-27.9-4.1
			c-0.3,0-0.6,0-0.9,0C97.7,234,88.1,235.5,79.8,238.3"/>
	</defs>
	<clipPath id="SVGID_5_">
		<use xlink:href="#SVGID_4_"  style="overflow:visible;"/>
	</clipPath>
	
		<linearGradient id="SVGID_6_" gradientUnits="userSpaceOnUse" x1="185.2253" y1="655.4844" x2="189.0581" y2="655.4844" gradientTransform="matrix(15.5729 -42.7863 -42.7863 -15.5729 25240.3398 18535.5117)">
		<stop  offset="0" style="stop-color:#D2D2D3"/>
		<stop  offset="0.178" style="stop-color:#D2D2D3"/>
		<stop  offset="0.4379" style="stop-color:#B1B1B1"/>
		<stop  offset="0.7956" style="stop-color:#7D7D7D"/>
		<stop  offset="0.7977" style="stop-color:#7C7C7C"/>
		<stop  offset="0.935" style="stop-color:#443E3D"/>
		<stop  offset="1" style="stop-color:#2E2624"/>
	</linearGradient>
	<polygon class="st7" points="-22.8,387 50.7,185.1 240.6,254.3 167.1,456.1 	"/>
</g>
</svg>
